<svg width="24" height="24" viewBox="0 0 24 24" fill="none" xmlns="http://www.w3.org/2000/svg">
<path fill-rule="evenodd" clip-rule="evenodd" d="M4.10038 7.81322C4.66425 4.51215 7.53833 2 11 2C13.8263 2 16.2594 3.67456 17.3649 6.0832C19.4367 6.48665 21 8.31054 21 10.5C21 10.8575 20.9581 11.2058 20.879 11.5401C22.7251 12.427 24 14.3137 24 16.5C24 19.2449 21.99 21.5191 19.361 21.9329C19.249 21.9762 19.1273 22 19 22H7.5C3.35786 22 0 18.6421 0 14.5C0 11.5802 1.66822 9.05213 4.10038 7.81322ZM12.5 7C13.0523 7 13.5 7.44772 13.5 8V13H16C16.4045 13 16.7691 13.2436 16.9239 13.6173C17.0787 13.991 16.9931 14.4211 16.7071 14.7071L12.7071 18.7071C12.3166 19.0976 11.6834 19.0976 11.2929 18.7071L7.29292 14.7071C7.00692 14.4211 6.92137 13.991 7.07615 13.6173C7.23093 13.2436 7.59557 13 8.00003 13H10.5V8C10.5 7.44772 10.9477 7 11.5 7H12.5Z" fill="#14213D"/>
</svg>
