<svg width="297" height="80" viewBox="0 0 297 80" fill="none" xmlns="http://www.w3.org/2000/svg">
<g filter="url(#filter0_d_625_15038)">
<path d="M45.0715 58C45.5715 58 46.0715 58.5 45.9715 59L44.5715 73.3C44.4715 73.8 44.1715 74.1 43.6715 74.1H5.67148C5.17148 74.1 4.77148 73.7 4.77148 73.1V5.1C4.77148 4.7 5.07148 4.3 5.57148 4.3H43.6715C44.1715 4.3 44.4715 4.6 44.5715 5.1L45.9715 19.3C45.9715 19.9 45.5715 20.3 45.0715 20.3H23.3715C22.8715 20.3 22.4715 20.7 22.4715 21.2V29.7C22.4715 30.2 22.8715 30.6 23.3715 30.6H39.1715C39.6715 30.6 40.0715 31 40.0715 31.5V45.7C40.0715 46.2 39.6715 46.6 39.1715 46.6H23.3715C22.8715 46.6 22.4715 47 22.4715 47.5V57.1C22.4715 57.6 22.8715 58 23.3715 58H45.0715ZM100.443 20.5C101.043 20.5 101.443 21.1 101.243 21.7L82.9426 72.8C82.8426 73.2 82.5426 73.4 82.1426 73.4H66.7426C66.3426 73.4 66.0426 73.2 65.9426 72.8L47.6426 21.7C47.4426 21.1 47.8426 20.5 48.4426 20.5H63.1426C63.5426 20.5 63.8426 20.8 63.9426 21.1L74.4426 50.5L84.9426 21.1C85.0426 20.8 85.3426 20.5 85.7426 20.5H100.443ZM153.226 39.6C154.026 42.1 154.426 44.7 154.426 47.4C154.426 48.9 154.226 50.7 153.926 52.3C153.926 52.7 153.526 53 153.126 53H116.126C115.426 53 115.026 53.7 115.326 54.3C117.626 58.1 121.726 60.5 126.226 60.5C130.026 60.5 133.626 58.9 136.126 55.6C136.326 55.4 136.626 55.2 137.026 55.3L151.126 57.8C151.726 57.9 152.026 58.5 151.726 59C151.426 59.7 151.026 60.5 150.826 60.9L150.626 61.3C150.326 61.7 150.126 62 149.926 62.5C149.526 63 149.226 63.4 148.926 63.8L148.726 64C148.626 64.2 148.526 64.3 148.426 64.4L148.326 64.6C148.126 64.9 147.926 65.1 147.726 65.3L147.526 65.5C147.226 65.9 146.926 66.2 146.626 66.5L146.426 66.7C146.126 67 145.926 67.2 145.726 67.4L145.626 67.5C145.426 67.7 145.126 67.9 144.926 68.1L144.626 68.4L144.326 68.1L144.526 68.4C144.126 68.8 143.826 69.1 143.426 69.3L143.126 69.6C142.626 69.9 142.226 70.2 141.726 70.5L141.626 70.6C141.126 70.9 140.626 71.2 140.026 71.5L139.926 71.6C139.826 71.7 139.626 71.8 139.526 71.8L139.426 71.9C139.226 72 138.926 72.1 138.726 72.2L138.626 72.3C138.126 72.5 137.626 72.7 137.126 72.9V73C136.726 73.1 136.526 73.2 136.226 73.3L135.826 73.4C135.526 73.5 135.126 73.7 134.826 73.8H134.726C134.326 73.9 133.926 74 133.526 74.1L133.226 74.2C132.426 74.4 131.626 74.6 130.826 74.7L130.526 74.8C129.626 74.9 128.826 75 127.926 75H127.626C127.126 75.1 126.726 75.1 126.326 75.1C125.926 75.1 125.526 75.1 125.026 75C124.926 75 124.826 75 124.726 75H124.626C124.326 75 124.026 75 123.726 74.9H123.626C123.526 74.9 123.426 74.9 123.326 74.9C122.826 74.9 122.426 74.8 122.126 74.7H122.026H121.826C121.526 74.7 121.126 74.6 120.826 74.5L120.426 74.4C120.126 74.4 119.826 74.3 119.526 74.2H119.426C119.326 74.2 119.326 74.2 119.226 74.2C118.726 74 118.326 73.9 118.026 73.8C117.626 73.7 117.226 73.6 116.826 73.4C116.726 73.4 116.626 73.4 116.526 73.3C116.226 73.2 115.926 73.1 115.626 73L115.526 72.9C115.426 72.9 115.426 72.9 115.326 72.8C114.926 72.7 114.526 72.5 114.226 72.3H114.126C113.826 72.2 113.426 72 113.126 71.8C113.026 71.7 112.926 71.7 112.826 71.6H112.726C112.526 71.5 112.226 71.3 112.026 71.2L111.626 71C111.326 70.8 111.026 70.6 110.626 70.3C107.326 68.1 104.426 65.1 102.326 61.7C102.126 61.4 102.026 61.2 101.826 60.9L101.726 60.7C101.626 60.5 101.426 60.2 101.326 59.9L101.226 59.7C101.126 59.6 101.126 59.6 101.126 59.5C100.526 58.4 100.126 57.2 99.7262 56C99.4262 55.4 99.3262 54.8 99.1262 54.3C99.0262 53.9 98.9262 53.4 98.8262 53C98.5262 51.6 98.4262 50.2 98.3262 48.8C98.3262 48.3 98.3262 47.9 98.3262 47.4C98.3262 46.9 98.3262 46.4 98.3262 46C98.4262 43.5 98.9262 41.1 99.7262 38.7C99.9262 37.9 100.226 37.3 100.526 36.6C100.626 36.2 100.826 35.9 101.026 35.5C101.026 35.4 101.026 35.3 101.126 35.2L101.226 35C101.226 35 101.326 34.9 101.326 34.8C101.426 34.7 101.426 34.6 101.526 34.5L101.726 34.1C101.926 33.7 102.126 33.4 102.326 33C104.426 29.6 107.326 26.7 110.626 24.4C111.026 24.2 111.326 24 111.626 23.8L112.026 23.6C112.226 23.4 112.526 23.3 112.726 23.2L112.826 23.1C112.926 23.1 113.026 23 113.126 23C113.426 22.8 113.826 22.6 114.126 22.4C114.526 22.3 114.926 22.1 115.326 21.9C115.426 21.9 115.426 21.9 115.526 21.8H115.626C115.926 21.7 116.226 21.6 116.526 21.5V21.4C116.626 21.4 116.726 21.4 116.826 21.3C117.226 21.2 117.626 21.1 118.026 20.9C118.426 20.8 118.826 20.7 119.226 20.6C119.326 20.6 119.326 20.6 119.426 20.5H119.526C119.826 20.4 120.126 20.4 120.426 20.3H120.626C121.026 20.2 121.626 20.1 122.026 20C122.126 20 122.126 20 122.126 20C122.426 20 122.826 19.9 123.326 19.9C123.426 19.9 123.526 19.8 123.626 19.8H123.726C124.026 19.8 124.326 19.8 124.626 19.8H124.726C124.826 19.7 124.926 19.7 125.026 19.7C125.526 19.7 125.926 19.7 126.326 19.7C126.726 19.7 127.126 19.7 127.626 19.7L127.926 19.8C128.826 19.8 129.626 19.9 130.426 20L130.826 20.1C131.626 20.2 132.426 20.3 133.226 20.5L133.526 20.6C133.926 20.7 134.326 20.9 134.726 21H134.826C135.126 21.1 135.526 21.2 135.826 21.3C135.926 21.4 136.026 21.4 136.126 21.5C136.526 21.6 136.726 21.7 137.026 21.8H137.226C137.626 22 138.126 22.3 138.626 22.5H138.726C138.926 22.7 139.226 22.8 139.426 22.9L139.326 23.3L139.526 22.9C139.626 23 139.826 23.1 139.926 23.2C140.426 23.4 141.126 23.9 141.626 24.2C142.126 24.5 142.626 24.8 143.026 25.2H143.126C143.226 25.3 143.326 25.4 143.426 25.4C143.826 25.7 144.126 26 144.526 26.3L144.826 26.5C145.126 26.8 145.326 27 145.626 27.3L145.726 27.4C145.926 27.6 146.126 27.8 146.426 28L146.526 28.2C146.926 28.6 147.226 28.9 147.526 29.2L147.226 29.6L147.526 29.3L147.726 29.5C147.926 29.7 148.126 29.9 148.326 30.1L148.426 30.3C148.626 30.6 148.926 30.9 149.126 31.2C149.326 31.4 149.426 31.7 149.626 31.9L149.926 32.3C150.026 32.6 150.126 32.8 150.326 33L150.826 33.8C151.826 35.7 152.626 37.6 153.226 39.6ZM137.026 41.4C137.526 41.4 137.926 40.9 137.826 40.4C137.226 36.5 132.726 33.4 127.026 33.4C121.726 33.4 116.826 36.5 116.126 40.4C116.026 40.9 116.426 41.4 116.926 41.4H137.026ZM199.894 25.2C205.294 30.6 206.194 35 206.194 42.8V72.6C206.194 73 205.794 73.4 205.294 73.4H189.594C189.094 73.4 188.694 73 188.694 72.6V43.6C188.694 41.7 188.594 39.4 187.794 37.6C187.394 36.8 186.894 36.2 186.294 35.7C185.294 35 183.994 34.6 182.394 34.6C179.394 34.6 176.994 35.6 176.294 37.3C175.394 39.1 175.394 41.6 175.394 43.6V72.6C175.394 73 174.994 73.4 174.594 73.4H158.794C158.294 73.4 157.994 73 157.994 72.6V21.4C157.994 20.9 158.294 20.5 158.794 20.5H173.594C173.994 20.5 174.394 20.9 174.394 21.4V22.8C174.394 23.2 174.794 23.4 175.094 23.2C186.994 15 198.594 24.1 198.694 24.2C199.094 24.5 199.494 24.8 199.894 25.2ZM239.875 59.7C240.375 59.7 240.775 60.1 240.675 60.6L238.775 73.1C238.775 73.5 238.475 73.8 238.075 73.9C236.175 74 231.375 74.2 229.875 74.2C229.775 74.2 229.675 74.2 229.575 74.2C220.675 73.8 215.875 69.2 215.875 60.9V35.5C215.875 35.1 215.475 34.7 215.075 34.7H209.575C209.075 34.7 208.775 34.3 208.775 33.8V21.3C208.775 20.9 209.075 20.5 209.575 20.5H215.075C215.475 20.5 215.875 20.1 215.875 19.6V5.1C215.875 4.7 216.275 4.3 216.775 4.3H231.475C231.975 4.3 232.375 4.7 232.375 5.1V19.6C232.375 20.1 232.775 20.5 233.175 20.5H238.675C239.175 20.5 239.575 20.9 239.575 21.3V33.8C239.575 34.3 239.175 34.7 238.675 34.7H233.175C232.775 34.7 232.375 35.1 232.375 35.5C232.375 39.9 232.375 52.9 232.375 53V53.4C232.275 55 232.175 57.2 233.475 58.5C234.275 59.3 235.475 59.7 236.975 59.7H239.875ZM292.146 72.5C292.246 73 291.846 73.4 291.346 73.4H244.146C243.546 73.4 243.146 72.7 243.446 72.1L264.046 36.4C264.346 35.8 263.946 35.1 263.346 35.1H245.746C245.346 35.1 244.946 34.8 244.846 34.4L243.346 21.5C243.246 21 243.646 20.5 244.146 20.5H290.446C291.046 20.5 291.446 21.2 291.146 21.8L270.546 57.6C270.246 58.1 270.646 58.8 271.246 58.8H289.746C290.146 58.8 290.546 59.2 290.546 59.6L292.146 72.5Z" fill="url(#paint0_linear_625_15038)" shape-rendering="crispEdges"/>
</g>
<defs>
<filter id="filter0_d_625_15038" x="0.771484" y="0.299988" width="295.474" height="78.8" filterUnits="userSpaceOnUse" color-interpolation-filters="sRGB">
<feFlood flood-opacity="0" result="BackgroundImageFix"/>
<feColorMatrix in="SourceAlpha" type="matrix" values="0 0 0 0 0 0 0 0 0 0 0 0 0 0 0 0 0 0 127 0" result="hardAlpha"/>
<feOffset/>
<feGaussianBlur stdDeviation="2"/>
<feComposite in2="hardAlpha" operator="out"/>
<feColorMatrix type="matrix" values="0 0 0 0 0 0 0 0 0 0 0 0 0 0 0 0 0 0 0.25 0"/>
<feBlend mode="normal" in2="BackgroundImageFix" result="effect1_dropShadow_625_15038"/>
<feBlend mode="normal" in="SourceGraphic" in2="effect1_dropShadow_625_15038" result="shape"/>
</filter>
<linearGradient id="paint0_linear_625_15038" x1="369" y1="38" x2="-98.25" y2="38" gradientUnits="userSpaceOnUse">
<stop offset="0.122272" stop-color="#F7FD04" stop-opacity="0.7"/>
<stop offset="0.306745" stop-color="#28DF99" stop-opacity="0.7"/>
<stop offset="0.4985" stop-color="#64B5F6"/>
<stop offset="0.6854" stop-color="#C77DFF"/>
<stop offset="0.871086" stop-color="#FF5C8A"/>
</linearGradient>
</defs>
</svg>
