<svg width="24" height="24" viewBox="0 0 24 24" fill="none" xmlns="http://www.w3.org/2000/svg">
<path d="M9.57909 4.83828C10.5644 4.07194 12 4.77409 12 6.02231V12V17.9777C12 19.2259 10.5644 19.928 9.57909 19.1617L1.38606 12.7893C1.14247 12.5999 1 12.3086 1 12C1 11.6914 1.14247 11.4001 1.38606 11.2106L9.57909 4.83828Z" fill="#14213D"/>
<path d="M12 12C12 12.3086 12.1425 12.5999 12.3861 12.7893L20.5791 19.1617C21.5644 19.928 23 19.2259 23 17.9777V6.02231C23 4.77409 21.5644 4.07194 20.5791 4.83828L12.3861 11.2106C12.1425 11.4001 12 11.6914 12 12Z" fill="#14213D"/>
</svg>
