<svg width="24" height="24" viewBox="0 0 24 24" fill="none" xmlns="http://www.w3.org/2000/svg">
<path d="M14.9702 2.24253C15.0833 1.79008 14.8686 1.31952 14.4528 1.10836C14.0369 0.897207 13.5304 1.00153 13.2318 1.35981L3.23179 13.3598C2.98339 13.6579 2.92984 14.0728 3.09442 14.4242C3.259 14.7755 3.61199 15 4.00001 15H10.7192L9.02987 21.7575C8.91676 22.2099 9.13142 22.6805 9.54725 22.8916C9.96309 23.1028 10.4697 22.9985 10.7682 22.6402L20.7682 10.6402C21.0166 10.3421 21.0702 9.92722 20.9056 9.57584C20.741 9.22445 20.388 9 20 9H13.2808L14.9702 2.24253Z" fill="#14213D"/>
</svg>
