<svg width="60" height="12" viewBox="0 0 60 12" fill="none" xmlns="http://www.w3.org/2000/svg">
<path d="M6.00016 8.635L8.07516 9.89001C8.45516 10.12 8.92016 9.78 8.82016 9.35001L8.27016 6.99L10.1052 5.40001C10.4402 5.11001 10.2602 4.56001 9.82016 4.52501L7.40516 4.32001L6.46016 2.09C6.29016 1.685 5.71016 1.685 5.54016 2.09L4.59516 4.31501L2.18016 4.52C1.74016 4.55501 1.56016 5.10501 1.89516 5.395L3.73016 6.985L3.18016 9.34501C3.08016 9.775 3.54516 10.115 3.92516 9.885L6.00016 8.635Z" fill="#FEEBAB"/>
<path d="M18.0002 8.635L20.0752 9.89001C20.4552 10.12 20.9202 9.78 20.8202 9.35001L20.2702 6.99L22.1052 5.40001C22.4402 5.11001 22.2602 4.56001 21.8202 4.52501L19.4052 4.32001L18.4602 2.09C18.2902 1.685 17.7102 1.685 17.5402 2.09L16.5952 4.31501L14.1802 4.52C13.7402 4.55501 13.5602 5.10501 13.8952 5.395L15.7302 6.985L15.1802 9.34501C15.0802 9.775 15.5452 10.115 15.9252 9.885L18.0002 8.635Z" fill="#FEEBAB"/>
<path d="M30.0002 8.635L32.0752 9.89001C32.4552 10.12 32.9202 9.78 32.8202 9.35001L32.2702 6.99L34.1052 5.40001C34.4402 5.11001 34.2602 4.56001 33.8202 4.52501L31.4052 4.32001L30.4602 2.09C30.2902 1.685 29.7102 1.685 29.5402 2.09L28.5952 4.31501L26.1802 4.52C25.7402 4.55501 25.5602 5.10501 25.8952 5.395L27.7302 6.985L27.1802 9.34501C27.0802 9.775 27.5452 10.115 27.9252 9.885L30.0002 8.635Z" fill="#FEEBAB"/>
<path d="M42.0002 8.635L44.0752 9.89001C44.4552 10.12 44.9202 9.78 44.8202 9.35001L44.2702 6.99L46.1052 5.40001C46.4402 5.11001 46.2602 4.56001 45.8202 4.52501L43.4052 4.32001L42.4602 2.09C42.2902 1.685 41.7102 1.685 41.5402 2.09L40.5952 4.31501L38.1802 4.52C37.7402 4.55501 37.5602 5.10501 37.8952 5.395L39.7302 6.985L39.1802 9.34501C39.0802 9.775 39.5452 10.115 39.9252 9.885L42.0002 8.635Z" fill="#FEEBAB"/>
<path d="M57.8252 4.52L55.4052 4.31L54.4602 2.085C54.2902 1.68 53.7102 1.68 53.5402 2.085L52.5952 4.315L50.1802 4.52C49.7402 4.555 49.5602 5.105 49.8952 5.395L51.7302 6.985L51.1802 9.345C51.0802 9.775 51.5452 10.115 51.9252 9.885L54.0002 8.635L56.0752 9.89C56.4552 10.12 56.9202 9.78 56.8202 9.35L56.2702 6.985L58.1052 5.395C58.4402 5.105 58.2652 4.555 57.8252 4.52ZM54.0002 7.7V3.05L54.8552 5.07L57.0452 5.26L55.3852 6.7L55.8852 8.84L54.0002 7.7Z" fill="#FEEBAB"/>
</svg>
