<svg width="24" height="24" viewBox="0 0 24 24" fill="none" xmlns="http://www.w3.org/2000/svg">
<path d="M21.4143 3.29285C21.8048 3.68337 21.8048 4.31653 21.4143 4.70706L4.70718 21.4142C4.31666 21.8047 3.68349 21.8047 3.29297 21.4142L2.58586 20.7071C2.19534 20.3165 2.19534 19.6834 2.58586 19.2928L19.293 2.58574C19.6835 2.19522 20.3167 2.19522 20.7072 2.58574L21.4143 3.29285Z" fill="#14213D"/>
<path d="M7.50009 2.99997C5.5671 2.99997 4.00009 4.56697 4.00009 6.49997C4.00009 8.43297 5.5671 9.99997 7.50009 9.99997C9.43309 9.99997 11.0001 8.43297 11.0001 6.49997C11.0001 4.56697 9.43309 2.99997 7.50009 2.99997Z" fill="#14213D"/>
<path d="M16.5001 14C14.5671 14 13.0001 15.567 13.0001 17.5C13.0001 19.433 14.5671 21 16.5001 21C18.4331 21 20.0001 19.433 20.0001 17.5C20.0001 15.567 18.4331 14 16.5001 14Z" fill="#14213D"/>
</svg>
