<svg width="16" height="16" viewBox="0 0 16 16" fill="none" xmlns="http://www.w3.org/2000/svg">
<path fill-rule="evenodd" clip-rule="evenodd" d="M7.59059 15.8593L7.58892 15.858L7.58479 15.8548L7.57016 15.8433C7.55761 15.8334 7.53954 15.8191 7.51632 15.8005C7.46987 15.7634 7.40277 15.7091 7.31797 15.6391C7.14843 15.4992 6.90781 15.296 6.61975 15.0399C6.04458 14.5287 5.27569 13.8027 4.50463 12.946C3.73551 12.0914 2.95145 11.0927 2.35661 10.0352C1.76524 8.98385 1.3335 7.82622 1.3335 6.66667C1.3335 4.89856 2.03587 3.20286 3.28612 1.95262C4.53636 0.702379 6.23205 0 8.00016 0C9.76827 0 11.464 0.702379 12.7142 1.95262C13.9644 3.20286 14.6668 4.89856 14.6668 6.66667C14.6668 7.82622 14.2351 8.98385 13.6437 10.0352C13.0489 11.0927 12.2648 12.0914 11.4957 12.946C10.7246 13.8027 9.95575 14.5287 9.38057 15.0399C9.09252 15.296 8.8519 15.4992 8.68235 15.6391C8.59755 15.7091 8.53046 15.7634 8.48401 15.8005C8.46078 15.8191 8.44271 15.8334 8.43017 15.8433L8.41553 15.8548L8.41141 15.858L8.41016 15.859C8.41016 15.859 8.40946 15.8596 8.00016 15.3333L8.40946 15.8596C8.16872 16.0468 7.83133 16.0466 7.59059 15.8593ZM8.00016 15.3333L7.59059 15.8593C7.59059 15.8593 7.59087 15.8596 8.00016 15.3333ZM10.0002 6.66667C10.0002 7.77124 9.10473 8.66667 8.00016 8.66667C6.89559 8.66667 6.00016 7.77124 6.00016 6.66667C6.00016 5.5621 6.89559 4.66667 8.00016 4.66667C9.10473 4.66667 10.0002 5.5621 10.0002 6.66667Z" fill="#434D64"/>
</svg>
