<svg width="12" height="12" viewBox="0 0 12 12" fill="none" xmlns="http://www.w3.org/2000/svg">
<path fill-rule="evenodd" clip-rule="evenodd" d="M5.69282 11.8945L5.69157 11.8935L5.68847 11.8911L5.6775 11.8825C5.66809 11.8751 5.65453 11.8643 5.63712 11.8504C5.60228 11.8225 5.55196 11.7819 5.48836 11.7294C5.3612 11.6244 5.18073 11.472 4.96469 11.28C4.53331 10.8965 3.95664 10.352 3.37835 9.70948C2.80151 9.06855 2.21346 8.3195 1.76734 7.52638C1.32381 6.73788 1 5.86967 1 5C1 3.67392 1.52678 2.40215 2.46447 1.46447C3.40215 0.526784 4.67392 0 6 0C7.32608 0 8.59785 0.526784 9.53553 1.46447C10.4732 2.40215 11 3.67392 11 5C11 5.86967 10.6762 6.73788 10.2327 7.52638C9.78654 8.3195 9.19849 9.06855 8.62165 9.70948C8.04336 10.352 7.46669 10.8965 7.03531 11.28C6.81927 11.472 6.6388 11.6244 6.51164 11.7294C6.44804 11.7819 6.39772 11.8225 6.36288 11.8504C6.34547 11.8643 6.33191 11.8751 6.3225 11.8825L6.31153 11.8911L6.30843 11.8935L6.3075 11.8943C6.3075 11.8943 6.30697 11.8947 6 11.5L6.30697 11.8947C6.12642 12.0351 5.87337 12.0349 5.69282 11.8945ZM6 11.5L5.69282 11.8945C5.69282 11.8945 5.69303 11.8947 6 11.5ZM7.5 5C7.5 5.82843 6.82843 6.5 6 6.5C5.17157 6.5 4.5 5.82843 4.5 5C4.5 4.17157 5.17157 3.5 6 3.5C6.82843 3.5 7.5 4.17157 7.5 5Z" fill="#14213D"/>
</svg>
