<svg width="24" height="24" viewBox="0 0 24 24" fill="none" xmlns="http://www.w3.org/2000/svg">
<path d="M12.9123 1.59053C12.751 1.2312 12.3939 1 12 1C11.6061 1 11.2489 1.2312 11.0877 1.59053L8.27066 7.86702L1.43086 8.60661C1.03928 8.64895 0.709022 8.91721 0.58731 9.2918C0.465599 9.66639 0.575106 10.0775 0.867016 10.342L5.96581 14.9606L4.55559 21.6942C4.47485 22.0797 4.62792 22.4767 4.94657 22.7082C5.26521 22.9397 5.69007 22.9626 6.03176 22.7667L12 19.3447L17.9682 22.7667C18.3099 22.9626 18.7348 22.9397 19.0534 22.7082C19.3721 22.4767 19.5251 22.0797 19.4444 21.6942L18.0342 14.9606L23.133 10.342C23.4249 10.0775 23.5344 9.66639 23.4127 9.2918C23.291 8.91721 22.9607 8.64895 22.5691 8.60661L15.7293 7.86702L12.9123 1.59053Z" fill="#14213D"/>
</svg>
