<svg width="30" height="30" viewBox="0 0 30 30" fill="none" xmlns="http://www.w3.org/2000/svg">
<path fill-rule="evenodd" clip-rule="evenodd" d="M5.72925 9.27084C5.72925 4.1507 9.87994 0 15.0001 0C20.1202 0 24.2709 4.15069 24.2709 9.27084V10.4167C24.2709 13.1674 24.6444 15.6059 25.2136 17.3134C25.5004 18.1737 25.8143 18.7798 26.1021 19.145C26.3153 19.4155 26.4425 19.4702 26.4716 19.4792C27.1559 19.4863 27.7084 20.0432 27.7084 20.7292V20.9896C27.7084 21.6799 27.1488 22.2396 26.4584 22.2396H3.54175C2.85139 22.2396 2.29175 21.6799 2.29175 20.9896V20.7292C2.29175 20.0432 2.84426 19.4863 3.52853 19.4792C3.55771 19.4701 3.68488 19.4155 3.89801 19.145C4.18589 18.7798 4.4998 18.1737 4.78657 17.3134C5.35575 15.6059 5.72925 13.1674 5.72925 10.4167V9.27084ZM3.52205 19.4808C3.52204 19.4808 3.52316 19.4805 3.52542 19.4801L3.52346 19.4806C3.52252 19.4808 3.52205 19.4809 3.52205 19.4808Z" fill="#434D64"/>
<path d="M11.5625 24.375C11.0906 24.375 10.6589 24.6408 10.4464 25.0622C10.2339 25.4836 10.2769 25.9887 10.5575 26.3682C11.5976 27.7749 13.1689 28.75 15 28.75C16.8312 28.75 18.4025 27.7749 19.4426 26.3682C19.7232 25.9887 19.7662 25.4836 19.5537 25.0622C19.3412 24.6408 18.9095 24.375 18.4375 24.375H11.5625Z" fill="#434D64"/>
</svg>
