<svg width="24" height="24" viewBox="0 0 24 24" fill="none" xmlns="http://www.w3.org/2000/svg">
<path d="M12.1657 2.14424C12.8728 2.50021 13 3.27314 13 3.7446V20.2561C13 20.7286 12.8717 21.4998 12.1656 21.8554C11.416 22.2331 10.7175 21.8081 10.3623 21.4891L4.95001 16.6248H3.00001C1.89544 16.6248 1.00001 15.7293 1.00001 14.6248L1 9.43717C1 8.3326 1.89543 7.43717 3 7.43717H4.94661L10.3623 2.51158C10.7163 2.19354 11.4151 1.76635 12.1657 2.14424Z" fill="#14213D"/>
<path d="M16.1185 7.73078L16.3581 7.80239C18.1251 8.33068 19.25 10.1014 19.25 12C19.25 13.8987 18.1251 15.6693 16.3581 16.1976L16.1185 16.2692C15.5894 16.4274 15.0322 16.1267 14.874 15.5976L14.7308 15.1185C14.5726 14.5894 14.8733 14.0322 15.4024 13.874L15.642 13.8024C16.1752 13.643 16.75 12.9881 16.75 12C16.75 11.012 16.1752 10.3571 15.642 10.1976L15.4024 10.126C14.8733 9.96782 14.5726 9.41062 14.7308 8.88148L14.874 8.40243C15.0322 7.87329 15.5894 7.57258 16.1185 7.73078Z" fill="#14213D"/>
</svg>
