<svg width="24" height="24" viewBox="0 0 24 24" fill="none" xmlns="http://www.w3.org/2000/svg">
<path d="M12 1C11.7348 1 11.4804 1.10536 11.2929 1.29289C11.1054 1.48043 11 1.73478 11 2V12C11 12.5523 11.4477 13 12 13H22C22.5523 13 23 12.5523 23 12C23 10.5555 22.7155 9.12506 22.1627 7.79048C21.6099 6.4559 20.7996 5.24327 19.7782 4.22183C18.7567 3.20038 17.5441 2.39013 16.2095 1.83733C14.8749 1.28452 13.4445 1 12 1Z" fill="#14213D"/>
<path d="M9 4.51209C9 4.18747 8.84243 3.88305 8.57739 3.69562C8.31235 3.50819 7.97282 3.46107 7.66675 3.56925C3.78413 4.94156 1 8.64435 1 13C1 18.5228 5.47715 23 11 23C15.3556 23 19.0584 20.2158 20.4307 16.3332C20.5389 16.0272 20.4918 15.6876 20.3044 15.4226C20.1169 15.1575 19.8125 15 19.4879 15H11C9.89543 15 9 14.1045 9 13V4.51209Z" fill="#14213D"/>
</svg>
