<svg width="24" height="24" viewBox="0 0 24 24" fill="none" xmlns="http://www.w3.org/2000/svg">
<path fill-rule="evenodd" clip-rule="evenodd" d="M1 12C1 5.92487 5.92487 1 12 1C18.0751 1 23 5.92487 23 12C23 18.0751 18.0751 23 12 23C5.92487 23 1 18.0751 1 12ZM7.75736 7.05025C8.14788 6.65973 8.78105 6.65973 9.17157 7.05025L12 9.87868L14.8284 7.05025C15.219 6.65973 15.8521 6.65973 16.2426 7.05025L16.9497 7.75736C17.3403 8.14788 17.3403 8.78105 16.9497 9.17157L14.1213 12L16.9497 14.8284C17.3403 15.219 17.3403 15.8521 16.9497 16.2426L16.2426 16.9497C15.8521 17.3403 15.219 17.3403 14.8284 16.9497L12 14.1213L9.17157 16.9497C8.78105 17.3403 8.14788 17.3403 7.75736 16.9497L7.05025 16.2426C6.65973 15.8521 6.65973 15.219 7.05025 14.8284L9.87868 12L7.05025 9.17157C6.65973 8.78105 6.65973 8.14788 7.05025 7.75736L7.75736 7.05025Z" fill="#14213D"/>
</svg>
