<svg width="24" height="24" viewBox="0 0 24 24" fill="none" xmlns="http://www.w3.org/2000/svg">
<path fill-rule="evenodd" clip-rule="evenodd" d="M1 12C1 5.92487 5.92487 1 12 1C18.0751 1 23 5.92487 23 12C23 18.0751 18.0751 23 12 23C5.92487 23 1 18.0751 1 12ZM9 10.5C9.82843 10.5 10.5 9.82843 10.5 9C10.5 8.17157 9.82843 7.5 9 7.5C8.17157 7.5 7.5 8.17157 7.5 9C7.5 9.82843 8.17157 10.5 9 10.5ZM15 10.5C15.8284 10.5 16.5 9.82843 16.5 9C16.5 8.17157 15.8284 7.5 15 7.5C14.1716 7.5 13.5 8.17157 13.5 9C13.5 9.82843 14.1716 10.5 15 10.5ZM8.79678 16.6041C8.4646 17.0423 7.84036 17.1303 7.39992 16.7999C6.96219 16.4716 6.87354 15.8336 7.20208 15.3971C7.30914 15.2557 7.42882 15.1234 7.55137 14.9955C7.76344 14.7742 8.07335 14.4828 8.47425 14.1912C9.27219 13.6109 10.4744 12.9999 11.9999 12.9999C13.5254 12.9999 14.7277 13.6109 15.5256 14.1912C15.9265 14.4828 16.2364 14.7742 16.4485 14.9955C16.5714 15.1238 16.6918 15.2565 16.7989 15.3986L16.7999 15.3999C17.1313 15.8418 17.0417 16.4686 16.5999 16.7999C16.1595 17.1303 15.5352 17.0423 15.2031 16.6041L15.1984 16.5982C15.1925 16.5907 15.1812 16.5766 15.1646 16.5569C15.1315 16.5174 15.0777 16.4558 15.0045 16.3793C14.8572 16.2256 14.6359 16.0171 14.3492 15.8087C13.7722 15.389 12.9744 14.9999 11.9999 14.9999C11.0254 14.9999 10.2277 15.389 9.65059 15.8087C9.36399 16.0171 9.14264 16.2256 8.99535 16.3793C8.92211 16.4558 8.86838 16.5174 8.83523 16.5569C8.81869 16.5766 8.80737 16.5907 8.80142 16.5982L8.79678 16.6041Z" fill="#14213D"/>
</svg>
