<svg width="30" height="30" viewBox="0 0 30 30" fill="none" xmlns="http://www.w3.org/2000/svg">
<path d="M18.125 5C18.125 6.72589 16.7259 8.125 15 8.125C13.2741 8.125 11.875 6.72589 11.875 5C11.875 3.27411 13.2741 1.875 15 1.875C16.7259 1.875 18.125 3.27411 18.125 5Z" fill="#14213D"/>
<path d="M18.125 15C18.125 16.7259 16.7259 18.125 15 18.125C13.2741 18.125 11.875 16.7259 11.875 15C11.875 13.2741 13.2741 11.875 15 11.875C16.7259 11.875 18.125 13.2741 18.125 15Z" fill="#14213D"/>
<path d="M15 28.125C16.7259 28.125 18.125 26.7259 18.125 25C18.125 23.2741 16.7259 21.875 15 21.875C13.2741 21.875 11.875 23.2741 11.875 25C11.875 26.7259 13.2741 28.125 15 28.125Z" fill="#14213D"/>
</svg>
