<svg width="24" height="24" viewBox="0 0 24 24" fill="none" xmlns="http://www.w3.org/2000/svg">
<path d="M3.07615 8.38268C3.23093 8.75636 3.59557 9 4.00003 9H6.50006V15.5C6.50006 16.9587 7.07952 18.3576 8.11097 19.3891C9.14242 20.4205 10.5414 21 12.0001 21H20.0001C20.5523 21 21.0001 20.5523 21.0001 20V19C21.0001 18.4477 20.5523 18 20.0001 18H12.0001C11.337 18 10.7011 17.7366 10.2323 17.2678C9.76345 16.7989 9.50006 16.163 9.50006 15.5V9H12C12.4045 9 12.7691 8.75636 12.9239 8.38268C13.0787 8.00901 12.9931 7.57889 12.7071 7.29289L9.21179 3.79755C9.20872 3.79444 9.20562 3.79134 9.20251 3.78827L8.70714 3.29289C8.31661 2.90237 7.68345 2.90237 7.29292 3.29289L3.29292 7.29289C3.00692 7.57889 2.92137 8.00901 3.07615 8.38268Z" fill="#14213D"/>
</svg>
