<svg width="24" height="24" viewBox="0 0 24 24" fill="none" xmlns="http://www.w3.org/2000/svg">
<path d="M8.00003 8C7.59557 8 7.23093 7.75636 7.07615 7.38268C6.92137 7.00901 7.00692 6.57889 7.29292 6.29289L11.2929 2.29289C11.6834 1.90237 12.3166 1.90237 12.7071 2.29289L16.7071 6.29289C16.9931 6.57889 17.0787 7.00901 16.9239 7.38268C16.7691 7.75636 16.4045 8 16 8H13.5V16C13.5 16.5523 13.0523 17 12.5 17H11.5C10.9477 17 10.5 16.5523 10.5 16V8H8.00003Z" fill="#14213D"/>
<path d="M4.5 16.5C4.5 15.9477 4.05228 15.5 3.5 15.5H2.5C1.94772 15.5 1.5 15.9477 1.5 16.5V20C1.5 21.3807 2.61929 22.5 4 22.5H20C21.3807 22.5 22.5 21.3807 22.5 20V16.5C22.5 15.9477 22.0523 15.5 21.5 15.5H20.5C19.9477 15.5 19.5 15.9477 19.5 16.5V19.5H4.5V16.5Z" fill="#14213D"/>
</svg>
