<svg width="24" height="24" viewBox="0 0 24 24" fill="none" xmlns="http://www.w3.org/2000/svg">
<path d="M15.6173 3.07615C15.2436 3.23093 15 3.59557 15 4.00003V6.5H8.5C7.04131 6.5 5.64236 7.07946 4.61091 8.11091C3.57946 9.14236 3 10.5413 3 12V20C3 20.5523 3.44772 21 4 21H5C5.55228 21 6 20.5523 6 20V12C6 11.337 6.26339 10.7011 6.73223 10.2322C7.20107 9.76339 7.83696 9.5 8.5 9.5H15V12C15 12.4045 15.2436 12.7691 15.6173 12.9239C15.991 13.0787 16.4211 12.9931 16.7071 12.7071L20.7071 8.70714C21.0976 8.31661 21.0976 7.68345 20.7071 7.29292L20.2117 6.79755C20.2087 6.79443 20.2056 6.79134 20.2024 6.78826L16.7071 3.29292C16.4211 3.00692 15.991 2.92137 15.6173 3.07615Z" fill="#14213D"/>
</svg>
