<svg width="30" height="30" viewBox="0 0 30 30" fill="none" xmlns="http://www.w3.org/2000/svg">
<path d="M15 17.5C16.3807 17.5 17.5 16.3807 17.5 15C17.5 13.6193 16.3807 12.5 15 12.5C13.6193 12.5 12.5 13.6193 12.5 15C12.5 16.3807 13.6193 17.5 15 17.5Z" fill="#434D64"/>
<path fill-rule="evenodd" clip-rule="evenodd" d="M15 1.25C7.40608 1.25 1.25 7.40608 1.25 15C1.25 22.5939 7.40608 28.75 15 28.75C22.5939 28.75 28.75 22.5939 28.75 15C28.75 7.40608 22.5939 1.25 15 1.25ZM21.4859 10.0953C21.6356 9.64615 21.5187 9.15094 21.1839 8.81615C20.8491 8.48136 20.3539 8.36446 19.9048 8.51418L11.9548 11.1642C11.5815 11.2886 11.2886 11.5815 11.1642 11.9547L8.51419 19.9047C8.36447 20.3539 8.48137 20.8491 8.81616 21.1839C9.15095 21.5187 9.64616 21.6356 10.0953 21.4859L18.0453 18.8359C18.4186 18.7115 18.7115 18.4186 18.8359 18.0453L21.4859 10.0953Z" fill="#434D64"/>
</svg>
