<svg width="24" height="24" viewBox="0 0 24 24" fill="none" xmlns="http://www.w3.org/2000/svg">
<g clip-path="url(#clip0_240_9614)">
<path d="M12 0C7.58172 0 4 3.58172 4 8C4 12.4183 7.58172 16 12 16C16.4183 16 20 12.4183 20 8C20 3.58172 16.4183 0 12 0Z" fill="#14213D"/>
<path d="M6 16.0007C7.67132 17.2561 9.74879 18 12 18C14.2512 18 16.3287 17.2561 18 16.0007V23C18 23.3844 17.7797 23.7348 17.4332 23.9013C17.0867 24.0678 16.6755 24.021 16.3753 23.7809L12 21L7.6247 23.7809C7.32453 24.021 6.91328 24.0678 6.56681 23.9013C6.22035 23.7348 6 23.3844 6 23V16.0007Z" fill="#14213D"/>
</g>
<defs>
<clipPath id="clip0_240_9614">
<rect width="24" height="24" fill="white"/>
</clipPath>
</defs>
</svg>
