<svg width="50" height="50" viewBox="0 0 50 50" fill="none" xmlns="http://www.w3.org/2000/svg">
<circle cx="25" cy="25" r="25" fill="#FDFDFD"/>
<path d="M25.2266 23.8529H35.8246C35.9415 24.5217 36 25.1606 36 25.7695C36 27.9358 35.5566 29.8699 34.6698 31.5719C33.7829 33.274 32.5185 34.6042 30.8764 35.5625C29.2343 36.5208 27.3511 37 25.2266 37C23.6966 37 22.2396 36.698 20.8558 36.0941C19.472 35.4901 18.2782 34.674 17.2744 33.6458C16.2707 32.6176 15.474 31.3947 14.8844 29.9772C14.2948 28.5597 14 27.0673 14 25.5C14 23.9327 14.2948 22.4403 14.8844 21.0228C15.474 19.6053 16.2707 18.3824 17.2744 17.3542C18.2782 16.326 19.472 15.5099 20.8558 14.9059C22.2396 14.302 23.6966 14 25.2266 14C28.1502 14 30.6596 15.0033 32.7548 17.0098L29.6997 20.0195C28.501 18.8316 27.01 18.2376 25.2266 18.2376C23.9694 18.2376 22.8073 18.5621 21.7402 19.2109C20.6731 19.8598 19.8277 20.7408 19.204 21.8538C18.5803 22.9669 18.2684 24.1823 18.2684 25.5C18.2684 26.8177 18.5803 28.0331 19.204 29.1462C19.8277 30.2592 20.6731 31.1402 21.7402 31.7891C22.8073 32.4379 23.9694 32.7624 25.2266 32.7624C26.0744 32.7624 26.854 32.6426 27.5654 32.403C28.2769 32.1634 28.8616 31.8639 29.3196 31.5046C29.7776 31.1452 30.1772 30.7359 30.5183 30.2767C30.8594 29.8175 31.1103 29.3832 31.2711 28.974C31.4319 28.5647 31.5415 28.1753 31.6 27.806H25.2266V23.8529Z" fill="#434D64"/>
</svg>
