<svg width="24" height="24" viewBox="0 0 24 24" fill="none" xmlns="http://www.w3.org/2000/svg">
<path d="M18.5 2.5C19.0523 2.5 19.5 2.94772 19.5 3.5V4.5C19.5 5.05228 19.0523 5.5 18.5 5.5H16.0395L11.1645 18.5H12.5C13.0523 18.5 13.5 18.9477 13.5 19.5V20.5C13.5 21.0523 13.0523 21.5 12.5 21.5C10.1666 21.5 7.83337 21.5 5.5 21.5C4.94772 21.5 4.5 21.0523 4.5 20.5V19.5C4.5 18.9477 4.94772 18.5 5.5 18.5H7.96054L12.8355 5.5H11.5C10.9477 5.5 10.5 5.05228 10.5 4.5V3.5C10.5 2.94772 10.9477 2.5 11.5 2.5C13.8334 2.5 16.1666 2.5 18.5 2.5Z" fill="#14213D"/>
</svg>
