<svg width="24" height="24" viewBox="0 0 24 24" fill="none" xmlns="http://www.w3.org/2000/svg">
<path d="M2.5 3C2.5 2.44772 2.94772 2 3.5 2H4.5C5.05228 2 5.5 2.44772 5.5 3V9C5.5 9.55228 5.05228 10 4.5 10H3.5C2.94772 10 2.5 9.55228 2.5 9V3Z" fill="#14213D"/>
<path d="M2.5 15.5H1C0.447715 15.5 0 15.0523 0 14.5V13.5C0 12.9477 0.447715 12.5 1 12.5H7C7.55228 12.5 8 12.9477 8 13.5V14.5C8 15.0523 7.55228 15.5 7 15.5H5.5V21C5.5 21.5523 5.05228 22 4.5 22H3.5C2.94772 22 2.5 21.5523 2.5 21V15.5Z" fill="#14213D"/>
<path d="M23 15.5H21.5V21C21.5 21.5523 21.0523 22 20.5 22H19.5C18.9477 22 18.5 21.5523 18.5 21V15.5H17C16.4477 15.5 16 15.0523 16 14.5V13.5C16 12.9477 16.4477 12.5 17 12.5H23C23.5523 12.5 24 12.9477 24 13.5V14.5C24 15.0523 23.5523 15.5 23 15.5Z" fill="#14213D"/>
<path d="M19.5 2C18.9477 2 18.5 2.44772 18.5 3V9C18.5 9.55228 18.9477 10 19.5 10H20.5C21.0523 10 21.5 9.55228 21.5 9V3C21.5 2.44772 21.0523 2 20.5 2H19.5Z" fill="#14213D"/>
<path d="M10.5 13C10.5 12.4477 10.9477 12 11.5 12H12.5C13.0523 12 13.5 12.4477 13.5 13V21C13.5 21.5523 13.0523 22 12.5 22H11.5C10.9477 22 10.5 21.5523 10.5 21V13Z" fill="#14213D"/>
<path d="M11.5 2C10.9477 2 10.5 2.44772 10.5 3V6.5H9C8.44771 6.5 8 6.94772 8 7.5V8.5C8 9.05228 8.44771 9.5 9 9.5H15C15.5523 9.5 16 9.05228 16 8.5V7.5C16 6.94772 15.5523 6.5 15 6.5H13.5V3C13.5 2.44772 13.0523 2 12.5 2H11.5Z" fill="#14213D"/>
</svg>
