<svg width="30" height="30" viewBox="0 0 30 30" fill="none" xmlns="http://www.w3.org/2000/svg">
<path d="M15 -6.55671e-07C23.2843 -2.93554e-07 30 6.71573 30 15V15C30 23.2843 23.2843 30 15 30V30C6.71573 30 8.89561e-07 23.2843 1.25168e-06 15V15C1.61379e-06 6.71573 6.71573 -1.01779e-06 15 -6.55671e-07V-6.55671e-07Z" fill="#FDFDFD"/>
<path d="M17.5 7C17.5 8.38071 16.3807 9.5 15 9.5C13.6193 9.5 12.5 8.38071 12.5 7C12.5 5.61929 13.6193 4.5 15 4.5C16.3807 4.5 17.5 5.61929 17.5 7Z" fill="#FF5C8A"/>
<path d="M17.5 15C17.5 16.3807 16.3807 17.5 15 17.5C13.6193 17.5 12.5 16.3807 12.5 15C12.5 13.6193 13.6193 12.5 15 12.5C16.3807 12.5 17.5 13.6193 17.5 15Z" fill="#FF5C8A"/>
<path d="M15 25.5C16.3807 25.5 17.5 24.3807 17.5 23C17.5 21.6193 16.3807 20.5 15 20.5C13.6193 20.5 12.5 21.6193 12.5 23C12.5 24.3807 13.6193 25.5 15 25.5Z" fill="#FF5C8A"/>
</svg>
