<svg width="24" height="24" viewBox="0 0 24 24" fill="none" xmlns="http://www.w3.org/2000/svg">
<path d="M6.5 1C7.05228 1 7.5 1.44772 7.5 2V16.5H22C22.5523 16.5 23 16.9477 23 17.5V18.5C23 19.0523 22.5523 19.5 22 19.5H19.5L19.5 22C19.5 22.5523 19.0523 23 18.5 23H17.5C16.9477 23 16.5 22.5523 16.5 22L16.5 19.5H7C5.61929 19.5 4.5 18.3807 4.5 17V7.5H2C1.44772 7.5 1 7.05228 1 6.5V5.5C1 4.94772 1.44772 4.5 2 4.5H4.5V2C4.5 1.44772 4.94772 1 5.5 1H6.5Z" fill="#14213D"/>
<path d="M16.5 15V7.5H9V4.5H17C18.3807 4.5 19.5 5.61929 19.5 7V15H16.5Z" fill="#14213D"/>
</svg>
