<svg width="24" height="24" viewBox="0 0 24 24" fill="none" xmlns="http://www.w3.org/2000/svg">
<path fill-rule="evenodd" clip-rule="evenodd" d="M1 12C1 5.92487 5.92487 1 12 1C18.0751 1 23 5.92487 23 12C23 18.0751 18.0751 23 12 23C5.92487 23 1 18.0751 1 12ZM7.83335 12C7.4963 12 7.19244 11.7912 7.06346 11.4709C6.93447 11.1506 7.00577 10.7819 7.2441 10.5368L11.4107 6.25105C11.7362 5.91632 12.2638 5.91632 12.5893 6.25105L16.7559 10.5368C16.9942 10.7819 17.0655 11.1506 16.9365 11.4709C16.8076 11.7912 16.5037 12 16.1666 12H14V17C14 17.5523 13.5523 18 13 18H11C10.4477 18 10 17.5523 10 17V12H7.83335Z" fill="#14213D"/>
</svg>
