<svg width="24" height="24" viewBox="0 0 24 24" fill="none" xmlns="http://www.w3.org/2000/svg">
<path fill-rule="evenodd" clip-rule="evenodd" d="M2.81802 2.81802C3.66193 1.97411 4.80653 1.5 6 1.5C7.19347 1.5 8.33807 1.97411 9.18198 2.81802C10.0259 3.66193 10.5 4.80653 10.5 6V7.5H13.5V6C13.5 4.80653 13.9741 3.66193 14.818 2.81802C15.6619 1.97411 16.8065 1.5 18 1.5C19.1935 1.5 20.3381 1.97411 21.182 2.81802C22.0259 3.66193 22.5 4.80653 22.5 6C22.5 7.19347 22.0259 8.33807 21.182 9.18198C20.3381 10.0259 19.1935 10.5 18 10.5H16.5V13.5H18C19.1935 13.5 20.3381 13.9741 21.182 14.818C22.0259 15.6619 22.5 16.8065 22.5 18C22.5 19.1935 22.0259 20.3381 21.182 21.182C20.3381 22.0259 19.1935 22.5 18 22.5C16.8065 22.5 15.6619 22.0259 14.818 21.182C13.9741 20.3381 13.5 19.1935 13.5 18V16.5H10.5V18C10.5 19.1935 10.0259 20.3381 9.18198 21.182C8.33807 22.0259 7.19347 22.5 6 22.5C4.80653 22.5 3.66193 22.0259 2.81802 21.182C1.97411 20.3381 1.5 19.1935 1.5 18C1.5 16.8065 1.97411 15.6619 2.81802 14.818C3.66193 13.9741 4.80653 13.5 6 13.5H7.5V10.5H6C4.80653 10.5 3.66193 10.0259 2.81802 9.18198C1.97411 8.33807 1.5 7.19347 1.5 6C1.5 4.80653 1.97411 3.66193 2.81802 2.81802ZM7.5 7.5V6C7.5 5.60217 7.34196 5.22064 7.06066 4.93934C6.77936 4.65804 6.39782 4.5 6 4.5C5.60218 4.5 5.22064 4.65804 4.93934 4.93934C4.65804 5.22064 4.5 5.60218 4.5 6C4.5 6.39782 4.65804 6.77936 4.93934 7.06066C5.22064 7.34196 5.60217 7.5 6 7.5H7.5ZM10.5 10.5V13.5H13.5V10.5H10.5ZM7.5 16.5H6C5.60217 16.5 5.22064 16.658 4.93934 16.9393C4.65804 17.2206 4.5 17.6022 4.5 18C4.5 18.3978 4.65804 18.7794 4.93934 19.0607C5.22064 19.342 5.60217 19.5 6 19.5C6.39783 19.5 6.77936 19.342 7.06066 19.0607C7.34196 18.7794 7.5 18.3978 7.5 18V16.5ZM16.5 16.5V18C16.5 18.3978 16.658 18.7794 16.9393 19.0607C17.2206 19.342 17.6022 19.5 18 19.5C18.3978 19.5 18.7794 19.342 19.0607 19.0607C19.342 18.7794 19.5 18.3978 19.5 18C19.5 17.6022 19.342 17.2206 19.0607 16.9393C18.7794 16.658 18.3978 16.5 18 16.5H16.5ZM16.5 7.5H18C18.3978 7.5 18.7794 7.34196 19.0607 7.06066C19.342 6.77936 19.5 6.39783 19.5 6C19.5 5.60217 19.342 5.22064 19.0607 4.93934C18.7794 4.65804 18.3978 4.5 18 4.5C17.6022 4.5 17.2206 4.65804 16.9393 4.93934C16.658 5.22064 16.5 5.60217 16.5 6V7.5Z" fill="#14213D"/>
</svg>
