<svg width="30" height="30" viewBox="0 0 30 30" fill="none" xmlns="http://www.w3.org/2000/svg">
<path fill-rule="evenodd" clip-rule="evenodd" d="M12.5 0.625C5.94162 0.625 0.625 5.94162 0.625 12.5C0.625 19.0584 5.94162 24.375 12.5 24.375C15.1025 24.375 17.5095 23.5378 19.4663 22.118L25.3661 28.0178C25.8543 28.5059 26.6457 28.5059 27.1339 28.0178L28.0177 27.1339C28.5059 26.6457 28.5059 25.8543 28.0177 25.3661L22.118 19.4664C23.5378 17.5095 24.375 15.1025 24.375 12.5C24.375 5.94162 19.0584 0.625 12.5 0.625ZM4.375 12.5C4.375 8.01269 8.01269 4.375 12.5 4.375C16.9873 4.375 20.625 8.01269 20.625 12.5C20.625 16.9873 16.9873 20.625 12.5 20.625C8.01269 20.625 4.375 16.9873 4.375 12.5Z" fill="#434D64"/>
</svg>
