<svg width="24" height="24" viewBox="0 0 24 24" fill="none" xmlns="http://www.w3.org/2000/svg">
<path d="M7.5 2.5C7.5 1.94772 7.05228 1.5 6.5 1.5H5.5C4.94772 1.5 4.5 1.94772 4.5 2.5V10C4.5 11.9891 5.29018 13.8968 6.6967 15.3033C8.10322 16.7098 10.0109 17.5 12 17.5C13.9891 17.5 15.8968 16.7098 17.3033 15.3033C18.7098 13.8968 19.5 11.9891 19.5 10V2.5C19.5 1.94772 19.0523 1.5 18.5 1.5H17.5C16.9477 1.5 16.5 1.94772 16.5 2.5V10C16.5 11.1935 16.0259 12.3381 15.182 13.182C14.3381 14.0259 13.1935 14.5 12 14.5C10.8065 14.5 9.66193 14.0259 8.81802 13.182C7.97411 12.3381 7.5 11.1935 7.5 10V2.5Z" fill="#14213D"/>
<path d="M4 19.5C3.44772 19.5 3 19.9477 3 20.5V21.5C3 22.0523 3.44772 22.5 4 22.5H20C20.5523 22.5 21 22.0523 21 21.5V20.5C21 19.9477 20.5523 19.5 20 19.5H4Z" fill="#14213D"/>
</svg>
