<svg width="24" height="24" viewBox="0 0 24 24" fill="none" xmlns="http://www.w3.org/2000/svg">
<path fill-rule="evenodd" clip-rule="evenodd" d="M10.0615 7.94004C10.3426 7.35261 10.5 6.69469 10.5 6C10.5 3.51472 8.48528 1.5 6 1.5C3.51472 1.5 1.5 3.51472 1.5 6C1.5 8.48528 3.51472 10.5 6 10.5C6.69475 10.5 7.35273 10.3426 7.94021 10.0614L9.87878 12L7.94018 13.9386C7.35271 13.6574 6.69474 13.5 6 13.5C3.51472 13.5 1.5 15.5147 1.5 18C1.5 20.4853 3.51472 22.5 6 22.5C8.48528 22.5 10.5 20.4853 10.5 18C10.5 17.3053 10.3426 16.6474 10.0615 16.0599L13.0553 13.0661C13.0571 13.0643 13.059 13.0625 13.0608 13.0607C13.0626 13.0588 13.0644 13.057 13.0662 13.0552L21.4143 4.70712C21.8048 4.3166 21.8048 3.68343 21.4143 3.29291L20.7072 2.5858C20.3167 2.19528 19.6835 2.19528 19.293 2.5858L12.0001 9.87866L10.0615 7.94004ZM6 4.5C5.17157 4.5 4.5 5.17157 4.5 6C4.5 6.82843 5.17157 7.5 6 7.5C6.39548 7.5 6.75522 7.34695 7.02321 7.09684C7.03503 7.08418 7.04711 7.07168 7.05946 7.05933C7.07178 7.04701 7.08426 7.03495 7.0969 7.02314C7.34697 6.75516 7.5 6.39545 7.5 6C7.5 5.17157 6.82843 4.5 6 4.5ZM6 16.5C5.17157 16.5 4.5 17.1716 4.5 18C4.5 18.8284 5.17157 19.5 6 19.5C6.82843 19.5 7.5 18.8284 7.5 18C7.5 17.6125 7.35307 17.2593 7.11188 16.9931L7.00686 16.8881C6.74067 16.6469 6.3875 16.5 6 16.5Z" fill="#14213D"/>
<path d="M14.2928 13.5858C14.6834 13.1953 15.3165 13.1953 15.7071 13.5858L21.4142 19.2929C21.8047 19.6834 21.8047 20.3166 21.4142 20.7071L20.7071 21.4142C20.3165 21.8048 19.6834 21.8048 19.2928 21.4142L13.5857 15.7071C13.1952 15.3166 13.1952 14.6834 13.5857 14.2929L14.2928 13.5858Z" fill="#14213D"/>
</svg>
