<svg width="24" height="24" viewBox="0 0 24 24" fill="none" xmlns="http://www.w3.org/2000/svg">
<path d="M1.72121 9.84783C1.60853 10.3885 2.00919 10.8844 2.55813 10.9451L3.55208 11.0549C4.10102 11.1156 4.58852 10.7169 4.72198 10.1809C5.53445 6.9183 8.48575 4.5 12.0002 4.5C13.5186 4.5 14.8077 5.08399 16.088 6.03743C16.176 6.10293 16.263 6.1694 16.3492 6.2368L14.7931 7.79292C14.5071 8.07892 14.4216 8.50904 14.5763 8.88271C14.7311 9.25639 15.0958 9.50003 15.5002 9.50003H21.0002C21.5525 9.50003 22.0002 9.05231 22.0002 8.50003V3.00003C22.0002 2.59557 21.7566 2.23093 21.3829 2.07615C21.0092 1.92137 20.5791 2.00692 20.2931 2.29292L18.4829 4.10309C18.2839 3.94028 18.0828 3.78239 17.8798 3.63127C16.287 2.44515 14.3803 1.5 12.0002 1.5C6.93842 1.5 2.71476 5.08059 1.72121 9.84783Z" fill="#14213D"/>
<path d="M22.2792 14.1522C22.3919 13.6115 21.9912 13.1156 21.4423 13.0549L20.4484 12.9451C19.8994 12.8844 19.4119 13.2831 19.2785 13.8191C18.466 17.0817 15.5147 19.5 12.0003 19.5C10.4818 19.5 9.19277 18.916 7.91239 17.9626C7.82443 17.8971 7.73741 17.8306 7.65119 17.7632L9.2073 16.2071C9.4933 15.9211 9.57885 15.491 9.42407 15.1173C9.26929 14.7436 8.90465 14.5 8.50019 14.5H3.00019C2.44791 14.5 2.00019 14.9477 2.00019 15.5V21C2.00019 21.4044 2.24383 21.7691 2.61751 21.9239C2.99118 22.0786 3.4213 21.9931 3.7073 21.7071L5.51748 19.8969C5.71653 20.0597 5.91768 20.2176 6.12063 20.3687C7.71348 21.5549 9.62015 22.5 12.0003 22.5C17.062 22.5 21.2857 18.9194 22.2792 14.1522Z" fill="#14213D"/>
</svg>
