<svg width="24" height="24" viewBox="0 0 24 24" fill="none" xmlns="http://www.w3.org/2000/svg">
<path fill-rule="evenodd" clip-rule="evenodd" d="M12 1C5.92487 1 1 5.92487 1 12C1 18.0751 5.92487 23 12 23C18.0751 23 23 18.0751 23 12C23 5.92487 18.0751 1 12 1ZM7.50356 5.38225C8.78498 4.5099 10.3329 4 12 4C16.4183 4 20 7.58172 20 12C20 13.6671 19.4901 15.215 18.6177 16.4964L7.50356 5.38225ZM5.38224 7.50358C4.5099 8.78499 4 10.3329 4 12C4 16.4183 7.58172 20 12 20C13.6671 20 15.215 19.4901 16.4964 18.6178L5.38224 7.50358Z" fill="#14213D"/>
</svg>
