<svg width="24" height="24" viewBox="0 0 24 24" fill="none" xmlns="http://www.w3.org/2000/svg">
<path d="M6.07615 9.38268C6.23093 9.75636 6.59557 10 7.00003 10H17C17.4045 10 17.7691 9.75636 17.9239 9.38268C18.0787 9.00901 17.9931 8.57889 17.7071 8.29289L12.7071 3.29289C12.3166 2.90237 11.6834 2.90237 11.2929 3.29289L6.29292 8.29289C6.00692 8.57889 5.92137 9.00901 6.07615 9.38268Z" fill="#14213D"/>
<path d="M6.07615 14.6173C6.23093 14.2436 6.59557 14 7.00003 14H17C17.4045 14 17.7691 14.2436 17.9239 14.6173C18.0787 14.991 17.9931 15.4211 17.7071 15.7071L12.7071 20.7071C12.3166 21.0976 11.6834 21.0976 11.2929 20.7071L6.29292 15.7071C6.00692 15.4211 5.92137 14.991 6.07615 14.6173Z" fill="#14213D"/>
</svg>
