<svg width="24" height="24" viewBox="0 0 24 24" fill="none" xmlns="http://www.w3.org/2000/svg">
<g clip-path="url(#clip0_240_9519)">
<path d="M23.3535 1.35352C23.744 1.74404 23.744 2.37721 23.3535 2.76773L2.76773 23.3535C2.3772 23.744 1.74404 23.744 1.35351 23.3535L0.646408 22.6464C0.255884 22.2559 0.255885 21.6227 0.646409 21.2322L4.73901 17.1396C3.73788 15.6888 3 13.9573 3 12V5C3 4.45328 3.43875 4.00903 3.98335 4.00014L3.99011 3.99977C4.00499 3.9989 4.0385 3.99651 4.09269 3.99049C4.20126 3.97843 4.39127 3.95194 4.67888 3.89442C5.25494 3.77921 6.21419 3.54118 7.68377 3.05132C9.12034 2.57246 10.0531 2.10195 10.6105 1.76751C10.8893 1.60023 11.0748 1.46665 11.1829 1.38252C11.237 1.34044 11.2719 1.31064 11.2896 1.29508L11.3022 1.28374C11.6903 0.905419 12.3097 0.905419 12.6978 1.28374L12.7105 1.29508C12.7281 1.31064 12.763 1.34044 12.8171 1.38252C12.9252 1.46665 13.1107 1.60023 13.3895 1.76751C13.9469 2.10195 14.8797 2.57246 16.3162 3.05132C17.095 3.3109 17.7304 3.49977 18.2415 3.63712L21.2322 0.646409C21.6227 0.255885 22.2559 0.255885 22.6464 0.646409L23.3535 1.35352Z" fill="#14213D"/>
<path d="M20.3827 9.19749C20.7564 9.35227 21 9.7169 21 10.1214V12.0001C21 15.4465 18.7183 18.2004 16.6585 20.0026C15.6077 20.9222 14.5615 21.6409 13.78 22.1293C13.3883 22.3742 13.0604 22.5628 12.8281 22.6914C12.7119 22.7557 12.6195 22.8051 12.5547 22.8391C12.2871 22.9796 12 23 12 23C12 23 11.7618 23.0097 11.3412 22.7837C11.2122 22.7144 11.0284 22.613 10.8021 22.481C10.35 22.2174 9.7248 21.8299 9.02441 21.3302C8.78505 21.1594 8.63299 20.8919 8.60866 20.5989C8.58433 20.3059 8.6902 20.017 8.89812 19.8091L19.2929 9.41426C19.5789 9.12826 20.009 9.04271 20.3827 9.19749Z" fill="#14213D"/>
</g>
<defs>
<clipPath id="clip0_240_9519">
<rect width="24" height="24" fill="white"/>
</clipPath>
</defs>
</svg>
