<svg width="24" height="24" viewBox="0 0 24 24" fill="none" xmlns="http://www.w3.org/2000/svg">
<path fill-rule="evenodd" clip-rule="evenodd" d="M2 4.5C2 3.11929 3.11929 2 4.5 2H19.5C20.8807 2 22 3.11929 22 4.5V19.5C22 20.8807 20.8807 22 19.5 22H4.5C3.11929 22 2 20.8807 2 19.5V4.5ZM18.787 9.57537C19.1767 9.18401 19.1753 8.55084 18.784 8.16116L18.0753 7.45558C17.684 7.0659 17.0508 7.06726 16.6611 7.45863L10.8895 13.2551L7.56845 9.98027C7.1752 9.59249 6.54205 9.59692 6.15427 9.99018L5.45213 10.7022C5.06436 11.0955 5.06879 11.7286 5.46204 12.1164L10.2003 16.7888C10.5922 17.1752 11.2228 17.1723 11.6111 16.7823L18.787 9.57537Z" fill="#14213D"/>
<path d="M17.8667 4H18.9333C19.5224 4 20 4.47756 20 5.06667V6.13333V7.2V8.26667V9.33333V10.4V11.4667V12.5333V13.6V14.6667V15.7333V16.8V17.8667V18.9333C20 19.5224 19.5224 20 18.9333 20H17.8667H16.8H15.7333H14.6667H13.6H12.5333H11.4667H10.4H9.33333H8.26667H7.2H6.13333H5.06667C4.47756 20 4 19.5224 4 18.9333V17.8667V16.8V15.7333V14.6667V13.6V12.5333V11.4667V10.4V9.33333V8.26667V7.2V6.13333V5.06667C4 4.47756 4.47756 4 5.06667 4H6.13333H7.2H8.26667H9.33333H10.4H11.4667H12.5333H13.6H14.6667H15.7333H16.8H17.8667Z" fill="#F8F8F8"/>
</svg>
