<svg width="24" height="24" viewBox="0 0 24 24" fill="none" xmlns="http://www.w3.org/2000/svg">
<path d="M20.9655 13.2308C19.6965 14.4615 16.1434 17.5385 12.0827 20L8.27581 18.1538L5.73788 15.6923L3.19995 12V6.46154L7.00685 4L9.54478 4.61538L10.8137 5.84615H12.7172L15.2551 4H18.4275L21.6 8.30769L20.9655 13.2308Z" fill="#FF686B"/>
<path d="M12 20C12 20 21 16 21 9.71405C21 6 18.9648 4 16.4543 4C15.2487 4 14.0925 4.49666 13.24 5.38071L12.7198 5.92016C12.3266 6.32798 11.6734 6.32798 11.2802 5.92016L10.76 5.38071C9.90749 4.49666 8.75128 4 7.54569 4C5 4 3 6 3 9.71405C3 16 12 20 12 20Z" stroke="#FCFCFC" stroke-width="2" stroke-linecap="round" stroke-linejoin="round"/>
</svg>
