<svg width="24" height="24" viewBox="0 0 24 24" fill="none" xmlns="http://www.w3.org/2000/svg">
<path d="M18 4V12C18 12.663 17.7366 13.2989 17.2678 13.7678C16.7989 14.2366 16.163 14.5 15.5 14.5H9V12C9 11.5955 8.75636 11.2309 8.38268 11.0761C8.00901 10.9213 7.57889 11.0069 7.29289 11.2929L3.29289 15.2929C2.90237 15.6834 2.90237 16.3166 3.29289 16.7071L7.29289 20.7071C7.57889 20.9931 8.00901 21.0786 8.38268 20.9238C8.75636 20.7691 9 20.4044 9 20V17.5H15.5C16.9587 17.5 18.3576 16.9205 19.3891 15.8891C20.4205 14.8576 21 13.4587 21 12V4C21 3.44772 20.5523 3 20 3H19C18.4477 3 18 3.44772 18 4Z" fill="#14213D"/>
</svg>
