<svg width="24" height="24" viewBox="0 0 24 24" fill="none" xmlns="http://www.w3.org/2000/svg">
<path d="M4.23527 1.51096C3.74439 1.39247 3.40733 1.99348 3.7644 2.35056L10.4816 9.06778C10.6469 9.02358 10.8206 9.00001 10.9998 9.00001C12.1043 9.00001 12.9998 9.89544 12.9998 11C12.9998 12.1046 12.1043 13 10.9998 13C9.8952 13 8.99976 12.1046 8.99976 11C8.99976 10.8209 9.02331 10.6473 9.06748 10.4821L2.35031 3.7649C1.99324 3.40782 1.39223 3.74489 1.51072 4.23577L4.52771 16.7347C4.61907 17.1132 4.92185 17.4043 5.30367 17.4807L11.069 18.6337C10.9279 18.9928 11.0025 19.417 11.2927 19.7072L14.2927 22.7072C14.6832 23.0977 15.3163 23.0977 15.7069 22.7072L22.7069 15.7072C23.0974 15.3166 23.0974 14.6835 22.7069 14.293L19.7069 11.293C19.4167 11.0028 18.9925 10.9282 18.6334 11.0693L17.4804 5.30397C17.404 4.92214 17.1129 4.61936 16.7344 4.528L4.23527 1.51096Z" fill="#14213D"/>
</svg>
