<svg width="24" height="24" viewBox="0 0 24 24" fill="none" xmlns="http://www.w3.org/2000/svg">
<path d="M9.52513 4.52513C10.1815 3.86875 11.0717 3.5 12 3.5C12.9283 3.5 13.8185 3.86875 14.4749 4.52513C14.7873 4.83751 15.0344 5.20276 15.2078 5.59999L15.4078 6.05825C15.6287 6.56443 16.2181 6.79568 16.7243 6.57477L17.6408 6.17478C18.147 5.95387 18.3783 5.36445 18.1574 4.85827L17.9574 4.40001C17.6355 3.66243 17.1763 2.98389 16.5962 2.40381C15.3772 1.18482 13.7239 0.5 12 0.5C10.2761 0.5 8.62279 1.18482 7.40381 2.40381C6.18482 3.62279 5.5 5.27609 5.5 7V10H5C3.34315 10 2 11.3431 2 13V20C2 21.6569 3.34315 23 5 23H19C20.6569 23 22 21.6569 22 20V13C22 11.3431 20.6569 10 19 10H8.5V7C8.5 6.07174 8.86875 5.1815 9.52513 4.52513Z" fill="#14213D"/>
</svg>
