<svg width="24" height="24" viewBox="0 0 24 24" fill="none" xmlns="http://www.w3.org/2000/svg">
<path d="M5 4C5 3.44772 4.55228 3 4 3H3C2.44772 3 2 3.44772 2 4V20C2 20.5523 2.44772 21 3 21H4C4.55228 21 5 20.5523 5 20V4Z" fill="#14213D"/>
<path d="M13 16C13 16.4044 12.7564 16.7691 12.3827 16.9239C12.009 17.0786 11.5789 16.9931 11.2929 16.7071L7.29289 12.7071C6.90237 12.3166 6.90237 11.6834 7.29289 11.2929L11.2929 7.29286C11.5789 7.00687 12.009 6.92131 12.3827 7.07609C12.7564 7.23087 13 7.59551 13 7.99997V10.5H21C21.5523 10.5 22 10.9477 22 11.5V12.5C22 13.0523 21.5523 13.5 21 13.5H13V16Z" fill="#14213D"/>
</svg>
