<svg width="24" height="24" viewBox="0 0 24 24" fill="none" xmlns="http://www.w3.org/2000/svg">
<path d="M8.00003 11C7.59557 11 7.23093 11.2436 7.07615 11.6173C6.92137 11.991 7.00692 12.4211 7.29292 12.7071L11.2929 16.7071C11.6834 17.0976 12.3166 17.0976 12.7071 16.7071L16.7071 12.7071C16.9931 12.4211 17.0787 11.991 16.9239 11.6173C16.7691 11.2436 16.4045 11 16 11H13.5V3C13.5 2.44771 13.0523 2 12.5 2H11.5C10.9477 2 10.5 2.44772 10.5 3V11H8.00003Z" fill="#14213D"/>
<path d="M20 19C20.5523 19 21 19.4477 21 20V21C21 21.5523 20.5523 22 20 22H4C3.44772 22 3 21.5523 3 21V20C3 19.4477 3.44772 19 4 19H20Z" fill="#14213D"/>
</svg>
