<svg width="21" height="25" viewBox="0 0 21 25" fill="none" xmlns="http://www.w3.org/2000/svg">
<path d="M17.5385 13.2818C17.5747 17.0649 20.9626 18.3241 21 18.3402C20.9714 18.4287 20.4588 20.1343 19.2153 21.8957C18.1404 23.4187 17.0245 24.936 15.2672 24.9678C13.5404 24.9983 12.9851 23.9749 11.0107 23.9749C9.03684 23.9749 8.42007 24.936 6.78524 24.9983C5.08877 25.0607 3.79689 23.3513 2.71303 21.8342C0.498391 18.7303 -1.19414 13.0634 1.07842 9.23819C2.20733 7.33856 4.22516 6.13579 6.4151 6.1048C8.08085 6.07401 9.65319 7.19105 10.6715 7.19105C11.6891 7.19105 13.5998 5.84762 15.6085 6.04483C16.4495 6.07884 18.8099 6.37405 20.3255 8.52482C20.2037 8.59827 17.5093 10.1188 17.5385 13.2818ZM14.2932 3.99165C15.1937 2.93498 15.7999 1.46357 15.6347 0C14.3364 0.0505094 12.7665 0.838537 11.8354 1.89481C11.0009 2.82994 10.2702 4.32711 10.4672 5.7617C11.9143 5.87036 13.3924 5.04893 14.2932 3.99165Z" fill="#434D64"/>
</svg>
