<svg width="24" height="24" viewBox="0 0 24 24" fill="none" xmlns="http://www.w3.org/2000/svg">
<path d="M22.2792 9.84783C22.3919 10.3885 21.9912 10.8844 21.4423 10.9451L20.4484 11.0549C19.8994 11.1156 19.4119 10.7169 19.2785 10.1809C18.466 6.9183 15.5147 4.5 12.0003 4.5C10.4818 4.5 9.19277 5.08399 7.91239 6.03743C7.82444 6.10292 7.73743 6.16939 7.65122 6.23679L9.20733 7.79289C9.49332 8.07889 9.57888 8.50901 9.4241 8.88268C9.26932 9.25636 8.90468 9.5 8.50022 9.5H3.00022C2.44793 9.5 2.00022 9.05228 2.00022 8.5V3C2.00022 2.59554 2.24386 2.2309 2.61754 2.07612C2.99121 1.92134 3.42133 2.00689 3.70733 2.29289L5.51751 4.10308C5.71655 3.94027 5.91769 3.78239 6.12063 3.63127C7.71348 2.44515 9.62015 1.5 12.0003 1.5C17.062 1.5 21.2857 5.08059 22.2792 9.84783Z" fill="#14213D"/>
<path d="M1.72121 14.1522C1.60853 13.6115 2.00919 13.1156 2.55813 13.0549L3.55208 12.9451C4.10102 12.8844 4.58852 13.2831 4.72198 13.8191C5.53445 17.0817 8.48575 19.5 12.0002 19.5C13.5186 19.5 14.8077 18.916 16.088 17.9626C16.176 17.8971 16.263 17.8306 16.3493 17.7632L14.7931 16.2071C14.5071 15.9211 14.4216 15.491 14.5764 15.1173C14.7311 14.7436 15.0958 14.5 15.5002 14.5H21.0002C21.5525 14.5 22.0002 14.9477 22.0002 15.5V21C22.0002 21.4044 21.7566 21.7691 21.3829 21.9239C21.0093 22.0786 20.5791 21.9931 20.2931 21.7071L18.483 19.8969C18.2839 20.0597 18.0828 20.2176 17.8798 20.3687C16.287 21.5549 14.3803 22.5 12.0002 22.5C6.93842 22.5 2.71476 18.9194 1.72121 14.1522Z" fill="#14213D"/>
</svg>
