<svg width="30" height="30" viewBox="0 0 30 30" fill="none" xmlns="http://www.w3.org/2000/svg">
<path d="M26.2069 16.5385C24.6207 18.0769 20.1793 21.9231 15.1034 25L10.3448 22.6923L7.17241 19.6154L4 15V8.07692L8.75862 5L11.931 5.76923L13.5172 7.30769H15.8966L19.069 5H23.0345L27 10.3846L26.2069 16.5385Z" fill="#FF686B"/>
<path d="M15 25C15 25 26.25 20 26.25 12.1426C26.25 7.5 23.706 5 20.5679 5C19.0609 5 17.6156 5.62082 16.55 6.72589L15.8998 7.4002C15.4082 7.90998 14.5918 7.90998 14.1002 7.4002L13.45 6.72589C12.3844 5.62082 10.9391 5 9.43211 5C6.25 5 3.75 7.5 3.75 12.1426C3.75 20 15 25 15 25Z" stroke="#FCFCFC" stroke-width="2" stroke-linecap="round" stroke-linejoin="round"/>
</svg>
