<svg width="24" height="24" viewBox="0 0 24 24" fill="none" xmlns="http://www.w3.org/2000/svg">
<path d="M3 21.5C2.44772 21.5 2 21.0523 2 20.5L2 19.5C2 18.9477 2.44772 18.5 3 18.5H9C9.55228 18.5 10 18.9477 10 19.5V20.5C10 21.0523 9.55228 21.5 9 21.5H3Z" fill="#14213D"/>
<path d="M15.5 21.5V23C15.5 23.5523 15.0523 24 14.5 24H13.5C12.9477 24 12.5 23.5523 12.5 23V17C12.5 16.4477 12.9477 16 13.5 16H14.5C15.0523 16 15.5 16.4477 15.5 17V18.5H21C21.5523 18.5 22 18.9477 22 19.5V20.5C22 21.0523 21.5523 21.5 21 21.5H15.5Z" fill="#14213D"/>
<path d="M15.5 1V2.5H21C21.5523 2.5 22 2.94772 22 3.5V4.5C22 5.05228 21.5523 5.5 21 5.5H15.5V7C15.5 7.55228 15.0523 8 14.5 8H13.5C12.9477 8 12.5 7.55228 12.5 7V1C12.5 0.447716 12.9477 0 13.5 0H14.5C15.0523 0 15.5 0.447716 15.5 1Z" fill="#14213D"/>
<path d="M2 4.5C2 5.05228 2.44772 5.5 3 5.5H9C9.55228 5.5 10 5.05228 10 4.5V3.5C10 2.94772 9.55228 2.5 9 2.5H3C2.44772 2.5 2 2.94772 2 3.5V4.5Z" fill="#14213D"/>
<path d="M13 13.5C12.4477 13.5 12 13.0523 12 12.5V11.5C12 10.9477 12.4477 10.5 13 10.5L21 10.5C21.5523 10.5 22 10.9477 22 11.5V12.5C22 13.0523 21.5523 13.5 21 13.5L13 13.5Z" fill="#14213D"/>
<path d="M2 12.5C2 13.0523 2.44772 13.5 3 13.5H6.5V15C6.5 15.5523 6.94772 16 7.5 16H8.5C9.05228 16 9.5 15.5523 9.5 15V9C9.5 8.44771 9.05228 8 8.5 8H7.5C6.94772 8 6.5 8.44771 6.5 9V10.5H3C2.44772 10.5 2 10.9477 2 11.5V12.5Z" fill="#14213D"/>
</svg>
