<svg width="24" height="24" viewBox="0 0 24 24" fill="none" xmlns="http://www.w3.org/2000/svg">
<path d="M19 4C19 3.44772 19.4477 3 20 3H21C21.5523 3 22 3.44772 22 4V20C22 20.5523 21.5523 21 21 21H20C19.4477 21 19 20.5523 19 20V4Z" fill="#14213D"/>
<path d="M8 16C8 16.4044 7.75636 16.7691 7.38268 16.9239C7.00901 17.0786 6.57889 16.9931 6.29289 16.7071L2.29289 12.7071C1.90237 12.3166 1.90237 11.6834 2.29289 11.2929L6.29289 7.29286C6.57889 7.00687 7.00901 6.92131 7.38268 7.07609C7.75636 7.23087 8 7.59551 8 7.99997V10.5H16C16.5523 10.5 17 10.9477 17 11.5V12.5C17 13.0523 16.5523 13.5 16 13.5H8V16Z" fill="#14213D"/>
</svg>
