<svg width="50" height="50" viewBox="0 0 50 50" fill="none" xmlns="http://www.w3.org/2000/svg">
<circle cx="25" cy="25" r="25" fill="#FDFDFD"/>
<path d="M31.5385 25.2818C31.5747 29.0649 34.9626 30.3241 35 30.3402C34.9714 30.4287 34.4588 32.1343 33.2153 33.8957C32.1404 35.4187 31.0245 36.936 29.2672 36.9678C27.5404 36.9983 26.9851 35.9749 25.0107 35.9749C23.0368 35.9749 22.4201 36.936 20.7852 36.9983C19.0888 37.0607 17.7969 35.3513 16.713 33.8342C14.4984 30.7303 12.8059 25.0634 15.0784 21.2382C16.2073 19.3386 18.2252 18.1358 20.4151 18.1048C22.0809 18.074 23.6532 19.1911 24.6715 19.1911C25.6891 19.1911 27.5998 17.8476 29.6085 18.0448C30.4495 18.0788 32.8099 18.374 34.3255 20.5248C34.2037 20.5983 31.5093 22.1188 31.5385 25.2818ZM28.2932 15.9917C29.1937 14.935 29.7999 13.4636 29.6347 12C28.3364 12.0505 26.7665 12.8385 25.8354 13.8948C25.0009 14.8299 24.2702 16.3271 24.4672 17.7617C25.9143 17.8704 27.3924 17.0489 28.2932 15.9917Z" fill="#434D64"/>
</svg>
