<svg width="16" height="16" viewBox="0 0 16 16" fill="none" xmlns="http://www.w3.org/2000/svg">
<path d="M5.3335 0.333374C5.88578 0.333374 6.3335 0.781089 6.3335 1.33337V2.00004H9.66683V1.33337C9.66683 0.781089 10.1145 0.333374 10.6668 0.333374C11.2191 0.333374 11.6668 0.781089 11.6668 1.33337V2.00004H12.6668C13.7714 2.00004 14.6668 2.89547 14.6668 4.00004V5.33337H1.3335V4.00004C1.3335 2.89547 2.22893 2.00004 3.3335 2.00004H4.3335V1.33337C4.3335 0.781089 4.78121 0.333374 5.3335 0.333374Z" fill="#434D64"/>
<path d="M1.3335 13.3334V6.66671H14.6668V13.3334C14.6668 14.4379 13.7714 15.3334 12.6668 15.3334H3.3335C2.22893 15.3334 1.3335 14.4379 1.3335 13.3334Z" fill="#434D64"/>
</svg>
