<svg width="182" height="51" viewBox="0 0 182 51" fill="none" xmlns="http://www.w3.org/2000/svg">
<g filter="url(#filter0_d_625_15036)">
<path d="M28.9429 36.4C29.2429 36.4 29.5429 36.7 29.4829 37L28.6429 45.58C28.5829 45.88 28.4029 46.06 28.1029 46.06H5.30289C5.00289 46.06 4.76289 45.82 4.76289 45.46V4.66C4.76289 4.42 4.94289 4.18 5.24289 4.18H28.1029C28.4029 4.18 28.5829 4.36 28.6429 4.66L29.4829 13.18C29.4829 13.54 29.2429 13.78 28.9429 13.78H15.9229C15.6229 13.78 15.3829 14.02 15.3829 14.32V19.42C15.3829 19.72 15.6229 19.96 15.9229 19.96H25.4029C25.7029 19.96 25.9429 20.2 25.9429 20.5V29.02C25.9429 29.32 25.7029 29.56 25.4029 29.56H15.9229C15.6229 29.56 15.3829 29.8 15.3829 30.1V35.86C15.3829 36.16 15.6229 36.4 15.9229 36.4H28.9429ZM62.1655 13.9C62.5255 13.9 62.7655 14.26 62.6455 14.62L51.6655 45.28C51.6055 45.52 51.4255 45.64 51.1855 45.64H41.9455C41.7055 45.64 41.5255 45.52 41.4655 45.28L30.4855 14.62C30.3655 14.26 30.6055 13.9 30.9655 13.9H39.7855C40.0255 13.9 40.2055 14.08 40.2655 14.26L46.5655 31.9L52.8655 14.26C52.9255 14.08 53.1055 13.9 53.3455 13.9H62.1655ZM93.8357 25.36C94.3157 26.86 94.5557 28.42 94.5557 30.04C94.5557 30.94 94.4357 32.02 94.2557 32.98C94.2557 33.22 94.0157 33.4 93.7757 33.4H71.5757C71.1557 33.4 70.9157 33.82 71.0957 34.18C72.4757 36.46 74.9357 37.9 77.6357 37.9C79.9157 37.9 82.0757 36.94 83.5757 34.96C83.6957 34.84 83.8757 34.72 84.1157 34.78L92.5757 36.28C92.9357 36.34 93.1157 36.7 92.9357 37C92.7557 37.42 92.5157 37.9 92.3957 38.14L92.2757 38.38C92.0957 38.62 91.9757 38.8 91.8557 39.1C91.6157 39.4 91.4357 39.64 91.2557 39.88L91.1357 40C91.0757 40.12 91.0157 40.18 90.9557 40.24L90.8957 40.36C90.7757 40.54 90.6557 40.66 90.5357 40.78L90.4157 40.9C90.2357 41.14 90.0557 41.32 89.8757 41.5L89.7557 41.62C89.5757 41.8 89.4557 41.92 89.3357 42.04L89.2757 42.1C89.1557 42.22 88.9757 42.34 88.8557 42.46L88.6757 42.64L88.4957 42.46L88.6157 42.64C88.3757 42.88 88.1957 43.06 87.9557 43.18L87.7757 43.36C87.4757 43.54 87.2357 43.72 86.9357 43.9L86.8757 43.96C86.5757 44.14 86.2757 44.32 85.9157 44.5L85.8557 44.56C85.7957 44.62 85.6757 44.68 85.6157 44.68L85.5557 44.74C85.4357 44.8 85.2557 44.86 85.1357 44.92L85.0757 44.98C84.7757 45.1 84.4757 45.22 84.1757 45.34V45.4C83.9357 45.46 83.8157 45.52 83.6357 45.58L83.3957 45.64C83.2157 45.7 82.9757 45.82 82.7957 45.88H82.7357C82.4957 45.94 82.2557 46 82.0157 46.06L81.8357 46.12C81.3557 46.24 80.8757 46.36 80.3957 46.42L80.2157 46.48C79.6757 46.54 79.1957 46.6 78.6557 46.6H78.4757C78.1757 46.66 77.9357 46.66 77.6957 46.66C77.4557 46.66 77.2157 46.66 76.9157 46.6C76.8557 46.6 76.7957 46.6 76.7357 46.6H76.6757C76.4957 46.6 76.3157 46.6 76.1357 46.54H76.0757C76.0157 46.54 75.9557 46.54 75.8957 46.54C75.5957 46.54 75.3557 46.48 75.1757 46.42H75.1157H74.9957C74.8157 46.42 74.5757 46.36 74.3957 46.3L74.1557 46.24C73.9757 46.24 73.7957 46.18 73.6157 46.12H73.5557C73.4957 46.12 73.4957 46.12 73.4357 46.12C73.1357 46 72.8957 45.94 72.7157 45.88C72.4757 45.82 72.2357 45.76 71.9957 45.64C71.9357 45.64 71.8757 45.64 71.8157 45.58C71.6357 45.52 71.4557 45.46 71.2757 45.4L71.2157 45.34C71.1557 45.34 71.1557 45.34 71.0957 45.28C70.8557 45.22 70.6157 45.1 70.4357 44.98H70.3757C70.1957 44.92 69.9557 44.8 69.7757 44.68C69.7157 44.62 69.6557 44.62 69.5957 44.56H69.5357C69.4157 44.5 69.2357 44.38 69.1157 44.32L68.8757 44.2C68.6957 44.08 68.5157 43.96 68.2757 43.78C66.2957 42.46 64.5557 40.66 63.2957 38.62C63.1757 38.44 63.1157 38.32 62.9957 38.14L62.9357 38.02C62.8757 37.9 62.7557 37.72 62.6957 37.54L62.6357 37.42C62.5757 37.36 62.5757 37.36 62.5757 37.3C62.2157 36.64 61.9757 35.92 61.7357 35.2C61.5557 34.84 61.4957 34.48 61.3757 34.18C61.3157 33.94 61.2557 33.64 61.1957 33.4C61.0157 32.56 60.9557 31.72 60.8957 30.88C60.8957 30.58 60.8957 30.34 60.8957 30.04C60.8957 29.74 60.8957 29.44 60.8957 29.2C60.9557 27.7 61.2557 26.26 61.7357 24.82C61.8557 24.34 62.0357 23.98 62.2157 23.56C62.2757 23.32 62.3957 23.14 62.5157 22.9C62.5157 22.84 62.5157 22.78 62.5757 22.72L62.6357 22.6C62.6357 22.6 62.6957 22.54 62.6957 22.48C62.7557 22.42 62.7557 22.36 62.8157 22.3L62.9357 22.06C63.0557 21.82 63.1757 21.64 63.2957 21.4C64.5557 19.36 66.2957 17.62 68.2757 16.24C68.5157 16.12 68.6957 16 68.8757 15.88L69.1157 15.76C69.2357 15.64 69.4157 15.58 69.5357 15.52L69.5957 15.46C69.6557 15.46 69.7157 15.4 69.7757 15.4C69.9557 15.28 70.1957 15.16 70.3757 15.04C70.6157 14.98 70.8557 14.86 71.0957 14.74C71.1557 14.74 71.1557 14.74 71.2157 14.68H71.2757C71.4557 14.62 71.6357 14.56 71.8157 14.5V14.44C71.8757 14.44 71.9357 14.44 71.9957 14.38C72.2357 14.32 72.4757 14.26 72.7157 14.14C72.9557 14.08 73.1957 14.02 73.4357 13.96C73.4957 13.96 73.4957 13.96 73.5557 13.9H73.6157C73.7957 13.84 73.9757 13.84 74.1557 13.78H74.2757C74.5157 13.72 74.8757 13.66 75.1157 13.6C75.1757 13.6 75.1757 13.6 75.1757 13.6C75.3557 13.6 75.5957 13.54 75.8957 13.54C75.9557 13.54 76.0157 13.48 76.0757 13.48H76.1357C76.3157 13.48 76.4957 13.48 76.6757 13.48H76.7357C76.7957 13.42 76.8557 13.42 76.9157 13.42C77.2157 13.42 77.4557 13.42 77.6957 13.42C77.9357 13.42 78.1757 13.42 78.4757 13.42L78.6557 13.48C79.1957 13.48 79.6757 13.54 80.1557 13.6L80.3957 13.66C80.8757 13.72 81.3557 13.78 81.8357 13.9L82.0157 13.96C82.2557 14.02 82.4957 14.14 82.7357 14.2H82.7957C82.9757 14.26 83.2157 14.32 83.3957 14.38C83.4557 14.44 83.5157 14.44 83.5757 14.5C83.8157 14.56 83.9357 14.62 84.1157 14.68H84.2357C84.4757 14.8 84.7757 14.98 85.0757 15.1H85.1357C85.2557 15.22 85.4357 15.28 85.5557 15.34L85.4957 15.58L85.6157 15.34C85.6757 15.4 85.7957 15.46 85.8557 15.52C86.1557 15.64 86.5757 15.94 86.8757 16.12C87.1757 16.3 87.4757 16.48 87.7157 16.72H87.7757C87.8357 16.78 87.8957 16.84 87.9557 16.84C88.1957 17.02 88.3757 17.2 88.6157 17.38L88.7957 17.5C88.9757 17.68 89.0957 17.8 89.2757 17.98L89.3357 18.04C89.4557 18.16 89.5757 18.28 89.7557 18.4L89.8157 18.52C90.0557 18.76 90.2357 18.94 90.4157 19.12L90.2357 19.36L90.4157 19.18L90.5357 19.3C90.6557 19.42 90.7757 19.54 90.8957 19.66L90.9557 19.78C91.0757 19.96 91.2557 20.14 91.3757 20.32C91.4957 20.44 91.5557 20.62 91.6757 20.74L91.8557 20.98C91.9157 21.16 91.9757 21.28 92.0957 21.4L92.3957 21.88C92.9957 23.02 93.4757 24.16 93.8357 25.36ZM84.1157 26.44C84.4157 26.44 84.6557 26.14 84.5957 25.84C84.2357 23.5 81.5357 21.64 78.1157 21.64C74.9357 21.64 71.9957 23.5 71.5757 25.84C71.5157 26.14 71.7557 26.44 72.0557 26.44H84.1157ZM121.836 16.72C125.076 19.96 125.616 22.6 125.616 27.28V45.16C125.616 45.4 125.376 45.64 125.076 45.64H115.656C115.356 45.64 115.116 45.4 115.116 45.16V27.76C115.116 26.62 115.056 25.24 114.576 24.16C114.336 23.68 114.036 23.32 113.676 23.02C113.076 22.6 112.296 22.36 111.336 22.36C109.536 22.36 108.096 22.96 107.676 23.98C107.136 25.06 107.136 26.56 107.136 27.76V45.16C107.136 45.4 106.896 45.64 106.656 45.64H97.1765C96.8765 45.64 96.6965 45.4 96.6965 45.16V14.44C96.6965 14.14 96.8765 13.9 97.1765 13.9H106.056C106.296 13.9 106.536 14.14 106.536 14.44V15.28C106.536 15.52 106.776 15.64 106.956 15.52C114.096 10.6 121.056 16.06 121.116 16.12C121.356 16.3 121.596 16.48 121.836 16.72ZM145.825 37.42C146.125 37.42 146.365 37.66 146.305 37.96L145.165 45.46C145.165 45.7 144.985 45.88 144.745 45.94C143.605 46 140.725 46.12 139.825 46.12C139.765 46.12 139.705 46.12 139.645 46.12C134.305 45.88 131.425 43.12 131.425 38.14V22.9C131.425 22.66 131.185 22.42 130.945 22.42H127.645C127.345 22.42 127.165 22.18 127.165 21.88V14.38C127.165 14.14 127.345 13.9 127.645 13.9H130.945C131.185 13.9 131.425 13.66 131.425 13.36V4.66C131.425 4.42 131.665 4.18 131.965 4.18H140.785C141.085 4.18 141.325 4.42 141.325 4.66V13.36C141.325 13.66 141.565 13.9 141.805 13.9H145.105C145.405 13.9 145.645 14.14 145.645 14.38V21.88C145.645 22.18 145.405 22.42 145.105 22.42H141.805C141.565 22.42 141.325 22.66 141.325 22.9C141.325 25.54 141.325 33.34 141.325 33.4V33.64C141.265 34.6 141.205 35.92 141.985 36.7C142.465 37.18 143.185 37.42 144.085 37.42H145.825ZM177.187 45.1C177.247 45.4 177.007 45.64 176.707 45.64H148.387C148.027 45.64 147.787 45.22 147.967 44.86L160.327 23.44C160.507 23.08 160.267 22.66 159.907 22.66H149.347C149.107 22.66 148.867 22.48 148.807 22.24L147.907 14.5C147.847 14.2 148.087 13.9 148.387 13.9H176.167C176.527 13.9 176.767 14.32 176.587 14.68L164.227 36.16C164.047 36.46 164.287 36.88 164.647 36.88H175.747C175.987 36.88 176.227 37.12 176.227 37.36L177.187 45.1Z" fill="url(#paint0_linear_625_15036)" shape-rendering="crispEdges"/>
</g>
<defs>
<filter id="filter0_d_625_15036" x="0.762939" y="0.179993" width="180.484" height="50.48" filterUnits="userSpaceOnUse" color-interpolation-filters="sRGB">
<feFlood flood-opacity="0" result="BackgroundImageFix"/>
<feColorMatrix in="SourceAlpha" type="matrix" values="0 0 0 0 0 0 0 0 0 0 0 0 0 0 0 0 0 0 127 0" result="hardAlpha"/>
<feOffset/>
<feGaussianBlur stdDeviation="2"/>
<feComposite in2="hardAlpha" operator="out"/>
<feColorMatrix type="matrix" values="0 0 0 0 0 0 0 0 0 0 0 0 0 0 0 0 0 0 0.25 0"/>
<feBlend mode="normal" in2="BackgroundImageFix" result="effect1_dropShadow_625_15036"/>
<feBlend mode="normal" in="SourceGraphic" in2="effect1_dropShadow_625_15036" result="shape"/>
</filter>
<linearGradient id="paint0_linear_625_15036" x1="227.256" y1="24" x2="-61.4768" y2="24" gradientUnits="userSpaceOnUse">
<stop offset="0.122272" stop-color="#F7FD04" stop-opacity="0.7"/>
<stop offset="0.306745" stop-color="#28DF99" stop-opacity="0.7"/>
<stop offset="0.4985" stop-color="#64B5F6"/>
<stop offset="0.6854" stop-color="#C77DFF"/>
<stop offset="0.871086" stop-color="#FF5C8A"/>
</linearGradient>
</defs>
</svg>
