<svg width="24" height="24" viewBox="0 0 24 24" fill="none" xmlns="http://www.w3.org/2000/svg">
<path d="M9.75838 1.09929C9.85156 1.13153 9.9852 1.17902 10.1535 1.24207C10.49 1.36812 10.9661 1.55678 11.5355 1.81078C12.6715 2.31752 14.193 3.09073 15.7215 4.15505C18.745 6.26052 22 9.65692 22 14.5393C22 16.6738 21.4305 18.7869 20.1046 20.3856C18.7552 22.0126 16.7095 23 14 23C13.9352 23 13.6752 22.9978 13.4169 22.8125C13.0566 22.5541 12.9699 22.1541 13.0085 21.8667C13.0376 21.6502 13.1305 21.5025 13.1576 21.4602C13.1966 21.3993 13.234 21.3556 13.2534 21.3338C13.293 21.2893 13.3281 21.2581 13.3407 21.247C13.3575 21.2322 13.3716 21.2207 13.3801 21.214C13.4065 21.1929 13.4323 21.1745 13.4402 21.1689L13.4413 21.1681L13.5185 21.1136C13.5762 21.0727 13.6587 21.0131 13.7588 20.9348C13.9606 20.7768 14.2297 20.546 14.4969 20.2526C15.0448 19.6509 15.5 18.8819 15.5 18C15.5 16.3681 14.571 14.8515 13.5067 13.669C12.9869 13.0914 12.4644 12.6267 12.0715 12.3065C12.0471 12.2866 12.0233 12.2674 12 12.2487C11.9767 12.2674 11.9529 12.2866 11.9285 12.3065C11.5356 12.6267 11.0131 13.0914 10.4933 13.669C9.42904 14.8515 8.5 16.3681 8.5 18C8.5 18.8887 8.95405 19.6581 9.49825 20.2564C9.76406 20.5486 10.0319 20.7779 10.2327 20.934C10.3323 21.0114 10.4142 21.0699 10.47 21.1087C10.4933 21.125 10.5115 21.1374 10.5281 21.1487L10.5401 21.1569C10.5471 21.1616 10.5635 21.1728 10.5787 21.1837C10.5832 21.187 10.6139 21.2089 10.6476 21.2376C10.6583 21.2467 10.6772 21.2632 10.6995 21.285C10.7154 21.3005 10.7647 21.3492 10.8157 21.4212C10.8424 21.4607 10.901 21.5658 10.9302 21.6326C10.9668 21.7437 10.9991 22.045 10.9733 22.2301C10.89 22.4562 10.6027 22.798 10.4241 22.9056C10.2979 22.9546 10.0834 22.9965 10 23C7.29045 23 5.24478 22.0126 3.89543 20.3856C2.56953 18.7869 2 16.6738 2 14.5393C2 11.9892 2.88357 10.3815 4.05286 9.15507C4.5965 8.58486 5.19715 8.10224 5.73579 7.66945L5.77852 7.63511C6.34602 7.17903 6.84273 6.7759 7.26778 6.31893C8.30821 5.20037 8.54446 4.18717 8.56055 3.49802C8.56885 3.14245 8.51857 2.85417 8.46943 2.66213C8.44495 2.56644 8.42112 2.49608 8.40592 2.45502C8.39834 2.43455 8.39298 2.42158 8.39089 2.41662C8.22725 2.05872 8.28834 1.6367 8.54841 1.34037C8.86981 0.974175 9.32884 0.950674 9.75838 1.09929Z" fill="#14213D"/>
</svg>
