<svg width="24" height="24" viewBox="0 0 24 24" fill="none" xmlns="http://www.w3.org/2000/svg">
<path d="M4 18H12C12.663 18 13.2989 17.7366 13.7678 17.2678C14.2366 16.7989 14.5 16.163 14.5 15.5V9H12C11.5956 9 11.2309 8.75636 11.0761 8.38268C10.9214 8.00901 11.0069 7.57889 11.2929 7.29289L15.2929 3.29289C15.6834 2.90237 16.3166 2.90237 16.7071 3.29289L20.7071 7.29289C20.9931 7.57889 21.0787 8.00901 20.9239 8.38268C20.7691 8.75636 20.4045 9 20 9H17.5V15.5C17.5 16.9587 16.9205 18.3576 15.8891 19.3891C14.8576 20.4205 13.4587 21 12 21H4C3.44772 21 3 20.5523 3 20V19C3 18.4477 3.44772 18 4 18Z" fill="#14213D"/>
</svg>
