<svg width="24" height="24" viewBox="0 0 24 24" fill="none" xmlns="http://www.w3.org/2000/svg">
<path fill-rule="evenodd" clip-rule="evenodd" d="M8.07615 5.38268C8.23093 5.75636 8.59557 6 9.00003 6H10.5V10.5H6V9.00003C6 8.59557 5.75636 8.23093 5.38268 8.07615C5.00901 7.92137 4.57889 8.00692 4.29289 8.29292L1.29289 11.2929C0.902369 11.6834 0.902369 12.3166 1.29289 12.7071L4.29289 15.7071C4.57889 15.9931 5.00901 16.0787 5.38268 15.9239C5.75636 15.7691 6 15.4045 6 15V13.5H10.5V18H9.00003C8.59557 18 8.23093 18.2436 8.07615 18.6173C7.92137 18.991 8.00692 19.4211 8.29292 19.7071L11.2929 22.7071C11.6834 23.0976 12.3166 23.0976 12.7071 22.7071L15.7071 19.7071C15.9931 19.4211 16.0787 18.991 15.9239 18.6173C15.7691 18.2436 15.4045 18 15 18H13.5V13.5H18V15C18 15.4045 18.2436 15.7691 18.6173 15.9239C18.991 16.0787 19.4211 15.9931 19.7071 15.7071L22.7071 12.7071C23.0976 12.3166 23.0976 11.6834 22.7071 11.2929L19.7071 8.29292C19.4211 8.00692 18.991 7.92137 18.6173 8.07615C18.2436 8.23093 18 8.59557 18 9.00003V10.5H13.5V6H15C15.4045 6 15.7691 5.75636 15.9239 5.38268C16.0787 5.00901 15.9931 4.57889 15.7071 4.29289L12.7071 1.29289C12.3166 0.902369 11.6834 0.902369 11.2929 1.29289L8.29292 4.29289C8.00692 4.57889 7.92137 5.00901 8.07615 5.38268Z" fill="#14213D"/>
</svg>
