<svg width="24" height="24" viewBox="0 0 24 24" fill="none" xmlns="http://www.w3.org/2000/svg">
<g clip-path="url(#clip0_240_9891)">
<path d="M23.3826 12.9239C23.7562 12.7691 23.9999 12.4045 23.9999 12V6C23.9999 5.44772 23.5522 5 22.9999 5H16.9999C16.5954 5 16.2308 5.24364 16.076 5.61732C15.9212 5.99099 16.0068 6.42111 16.2928 6.70711L18.2322 8.64649L13.5 13.3787L9.56062 9.43935C8.97484 8.85356 8.02509 8.85356 7.4393 9.43935L0.646409 16.2322C0.255885 16.6228 0.255885 17.2559 0.646409 17.6465L1.35352 18.3536C1.74404 18.7441 2.3772 18.7441 2.76773 18.3536L8.49996 12.6213L12.4393 16.5607C13.0251 17.1465 13.9748 17.1465 14.5606 16.5607L20.3535 10.7678L22.2928 12.7071C22.5788 12.9931 23.0089 13.0787 23.3826 12.9239Z" fill="#14213D"/>
</g>
<defs>
<clipPath id="clip0_240_9891">
<rect width="24" height="24" fill="white"/>
</clipPath>
</defs>
</svg>
