<svg width="30" height="30" viewBox="0 0 30 30" fill="none" xmlns="http://www.w3.org/2000/svg">
<path d="M8.75 2.5C4.14166 2.5 1.25 6.51844 1.25 10.625C1.25 14.8015 3.34268 18.3742 5.96439 21.1621C8.59013 23.9543 11.8462 26.0707 14.441 27.368C14.7929 27.544 15.2071 27.544 15.559 27.368C18.1538 26.0707 21.4099 23.9543 24.0356 21.1621C26.6573 18.3742 28.75 14.8015 28.75 10.625C28.75 6.52516 25.9111 2.5 21.25 2.5C19.0937 2.5 17.5664 3.09974 16.3983 4.01221C15.8481 4.44196 15.3888 4.93764 14.9967 5.42049C14.6003 4.93661 14.1363 4.44082 13.5811 4.00987C12.411 3.10156 10.886 2.5 8.75 2.5Z" fill="#434D64"/>
</svg>
