<svg width="24" height="24" viewBox="0 0 24 24" fill="none" xmlns="http://www.w3.org/2000/svg">
<path d="M20.0001 6H12.0001C11.337 6 10.7011 6.26339 10.2323 6.73223C9.76345 7.20107 9.50006 7.83696 9.50006 8.5V15H12C12.4045 15 12.7691 15.2436 12.9239 15.6173C13.0787 15.991 12.9931 16.4211 12.7071 16.7071L8.70714 20.7071C8.31661 21.0976 7.68345 21.0976 7.29292 20.7071L3.29292 16.7071C3.00692 16.4211 2.92137 15.991 3.07615 15.6173C3.23093 15.2436 3.59557 15 4.00003 15H6.50006V8.5C6.50006 7.04131 7.07952 5.64236 8.11097 4.61091C9.14242 3.57946 10.5414 3 12.0001 3H20.0001C20.5523 3 21.0001 3.44772 21.0001 4V5C21.0001 5.55228 20.5523 6 20.0001 6Z" fill="#14213D"/>
</svg>
