<svg width="101" height="32" viewBox="0 0 101 32" fill="none" xmlns="http://www.w3.org/2000/svg">
<g filter="url(#filter0_d_519_15200)">
<path d="M17.4029 21.88C17.5629 21.88 17.7229 22.04 17.6909 22.2L17.2429 26.776C17.2109 26.936 17.1149 27.032 16.9549 27.032H4.79488C4.63488 27.032 4.50688 26.904 4.50688 26.712V4.952C4.50688 4.824 4.60287 4.696 4.76288 4.696H16.9549C17.1149 4.696 17.2109 4.792 17.2429 4.952L17.6909 9.496C17.6909 9.688 17.5629 9.816 17.4029 9.816H10.4589C10.2989 9.816 10.1709 9.944 10.1709 10.104V12.824C10.1709 12.984 10.2989 13.112 10.4589 13.112H15.5149C15.6749 13.112 15.8029 13.24 15.8029 13.4V17.944C15.8029 18.104 15.6749 18.232 15.5149 18.232H10.4589C10.2989 18.232 10.1709 18.36 10.1709 18.52V21.592C10.1709 21.752 10.2989 21.88 10.4589 21.88H17.4029ZM35.1216 9.88C35.3136 9.88 35.4416 10.072 35.3776 10.264L29.5216 26.616C29.4896 26.744 29.3936 26.808 29.2656 26.808H24.3376C24.2096 26.808 24.1136 26.744 24.0816 26.616L18.2256 10.264C18.1616 10.072 18.2896 9.88 18.4816 9.88H23.1856C23.3136 9.88 23.4096 9.976 23.4416 10.072L26.8016 19.48L30.1616 10.072C30.1936 9.976 30.2896 9.88 30.4176 9.88H35.1216ZM52.0124 15.992C52.2684 16.792 52.3964 17.624 52.3964 18.488C52.3964 18.968 52.3324 19.544 52.2364 20.056C52.2364 20.184 52.1084 20.28 51.9804 20.28H40.1404C39.9164 20.28 39.7884 20.504 39.8844 20.696C40.6204 21.912 41.9324 22.68 43.3724 22.68C44.5884 22.68 45.7404 22.168 46.5404 21.112C46.6044 21.048 46.7004 20.984 46.8284 21.016L51.3404 21.816C51.5324 21.848 51.6284 22.04 51.5324 22.2C51.4364 22.424 51.3084 22.68 51.2444 22.808L51.1804 22.936C51.0844 23.064 51.0204 23.16 50.9564 23.32C50.8284 23.48 50.7324 23.608 50.6364 23.736L50.5724 23.8C50.5404 23.864 50.5084 23.896 50.4764 23.928L50.4444 23.992C50.3804 24.088 50.3164 24.152 50.2524 24.216L50.1884 24.28C50.0924 24.408 49.9964 24.504 49.9004 24.6L49.8364 24.664C49.7404 24.76 49.6764 24.824 49.6124 24.888L49.5804 24.92C49.5164 24.984 49.4204 25.048 49.3564 25.112L49.2604 25.208L49.1644 25.112L49.2284 25.208C49.1004 25.336 49.0044 25.432 48.8764 25.496L48.7804 25.592C48.6204 25.688 48.4924 25.784 48.3324 25.88L48.3004 25.912C48.1404 26.008 47.9804 26.104 47.7884 26.2L47.7564 26.232C47.7244 26.264 47.6604 26.296 47.6284 26.296L47.5964 26.328C47.5324 26.36 47.4364 26.392 47.3724 26.424L47.3404 26.456C47.1804 26.52 47.0204 26.584 46.8604 26.648V26.68C46.7324 26.712 46.6684 26.744 46.5724 26.776L46.4444 26.808C46.3484 26.84 46.2204 26.904 46.1244 26.936H46.0924C45.9644 26.968 45.8364 27 45.7084 27.032L45.6124 27.064C45.3564 27.128 45.1004 27.192 44.8444 27.224L44.7484 27.256C44.4604 27.288 44.2044 27.32 43.9164 27.32H43.8204C43.6604 27.352 43.5324 27.352 43.4044 27.352C43.2764 27.352 43.1484 27.352 42.9884 27.32C42.9564 27.32 42.9244 27.32 42.8924 27.32H42.8604C42.7644 27.32 42.6684 27.32 42.5724 27.288H42.5404C42.5084 27.288 42.4764 27.288 42.4444 27.288C42.2844 27.288 42.1564 27.256 42.0604 27.224H42.0284H41.9644C41.8684 27.224 41.7404 27.192 41.6444 27.16L41.5164 27.128C41.4204 27.128 41.3244 27.096 41.2284 27.064H41.1964C41.1644 27.064 41.1644 27.064 41.1324 27.064C40.9724 27 40.8444 26.968 40.7484 26.936C40.6204 26.904 40.4924 26.872 40.3644 26.808C40.3324 26.808 40.3004 26.808 40.2684 26.776C40.1724 26.744 40.0764 26.712 39.9804 26.68L39.9484 26.648C39.9164 26.648 39.9164 26.648 39.8844 26.616C39.7564 26.584 39.6284 26.52 39.5324 26.456H39.5004C39.4044 26.424 39.2764 26.36 39.1804 26.296C39.1484 26.264 39.1164 26.264 39.0844 26.232H39.0524C38.9884 26.2 38.8924 26.136 38.8284 26.104L38.7004 26.04C38.6044 25.976 38.5084 25.912 38.3804 25.816C37.3244 25.112 36.3964 24.152 35.7244 23.064C35.6604 22.968 35.6284 22.904 35.5644 22.808L35.5324 22.744C35.5004 22.68 35.4364 22.584 35.4044 22.488L35.3724 22.424C35.3404 22.392 35.3404 22.392 35.3404 22.36C35.1484 22.008 35.0204 21.624 34.8924 21.24C34.7964 21.048 34.7644 20.856 34.7004 20.696C34.6684 20.568 34.6364 20.408 34.6044 20.28C34.5084 19.832 34.4764 19.384 34.4444 18.936C34.4444 18.776 34.4444 18.648 34.4444 18.488C34.4444 18.328 34.4444 18.168 34.4444 18.04C34.4764 17.24 34.6364 16.472 34.8924 15.704C34.9564 15.448 35.0524 15.256 35.1484 15.032C35.1804 14.904 35.2444 14.808 35.3084 14.68C35.3084 14.648 35.3084 14.616 35.3404 14.584L35.3724 14.52C35.3724 14.52 35.4044 14.488 35.4044 14.456C35.4364 14.424 35.4364 14.392 35.4684 14.36L35.5324 14.232C35.5964 14.104 35.6604 14.008 35.7244 13.88C36.3964 12.792 37.3244 11.864 38.3804 11.128C38.5084 11.064 38.6044 11 38.7004 10.936L38.8284 10.872C38.8924 10.808 38.9884 10.776 39.0524 10.744L39.0844 10.712C39.1164 10.712 39.1484 10.68 39.1804 10.68C39.2764 10.616 39.4044 10.552 39.5004 10.488C39.6284 10.456 39.7564 10.392 39.8844 10.328C39.9164 10.328 39.9164 10.328 39.9484 10.296H39.9804C40.0764 10.264 40.1724 10.232 40.2684 10.2V10.168C40.3004 10.168 40.3324 10.168 40.3644 10.136C40.4924 10.104 40.6204 10.072 40.7484 10.008C40.8764 9.976 41.0044 9.944 41.1324 9.912C41.1644 9.912 41.1644 9.912 41.1964 9.88H41.2284C41.3244 9.848 41.4204 9.848 41.5164 9.816H41.5804C41.7084 9.784 41.9004 9.752 42.0284 9.72C42.0604 9.72 42.0604 9.72 42.0604 9.72C42.1564 9.72 42.2844 9.688 42.4444 9.688C42.4764 9.688 42.5084 9.656 42.5404 9.656H42.5724C42.6684 9.656 42.7644 9.656 42.8604 9.656H42.8924C42.9244 9.624 42.9564 9.624 42.9884 9.624C43.1484 9.624 43.2764 9.624 43.4044 9.624C43.5324 9.624 43.6604 9.624 43.8204 9.624L43.9164 9.656C44.2044 9.656 44.4604 9.688 44.7164 9.72L44.8444 9.752C45.1004 9.784 45.3564 9.816 45.6124 9.88L45.7084 9.912C45.8364 9.944 45.9644 10.008 46.0924 10.04H46.1244C46.2204 10.072 46.3484 10.104 46.4444 10.136C46.4764 10.168 46.5084 10.168 46.5404 10.2C46.6684 10.232 46.7324 10.264 46.8284 10.296H46.8924C47.0204 10.36 47.1804 10.456 47.3404 10.52H47.3724C47.4364 10.584 47.5324 10.616 47.5964 10.648L47.5644 10.776L47.6284 10.648C47.6604 10.68 47.7244 10.712 47.7564 10.744C47.9164 10.808 48.1404 10.968 48.3004 11.064C48.4604 11.16 48.6204 11.256 48.7484 11.384H48.7804C48.8124 11.416 48.8444 11.448 48.8764 11.448C49.0044 11.544 49.1004 11.64 49.2284 11.736L49.3244 11.8C49.4204 11.896 49.4844 11.96 49.5804 12.056L49.6124 12.088C49.6764 12.152 49.7404 12.216 49.8364 12.28L49.8684 12.344C49.9964 12.472 50.0924 12.568 50.1884 12.664L50.0924 12.792L50.1884 12.696L50.2524 12.76C50.3164 12.824 50.3804 12.888 50.4444 12.952L50.4764 13.016C50.5404 13.112 50.6364 13.208 50.7004 13.304C50.7644 13.368 50.7964 13.464 50.8604 13.528L50.9564 13.656C50.9884 13.752 51.0204 13.816 51.0844 13.88L51.2444 14.136C51.5644 14.744 51.8204 15.352 52.0124 15.992ZM46.8284 16.568C46.9884 16.568 47.1164 16.408 47.0844 16.248C46.8924 15 45.4524 14.008 43.6284 14.008C41.9324 14.008 40.3644 15 40.1404 16.248C40.1084 16.408 40.2364 16.568 40.3964 16.568H46.8284ZM66.9461 11.384C68.6741 13.112 68.9621 14.52 68.9621 17.016V26.552C68.9621 26.68 68.8341 26.808 68.6741 26.808H63.6501C63.4901 26.808 63.3621 26.68 63.3621 26.552V17.272C63.3621 16.664 63.3301 15.928 63.0741 15.352C62.9461 15.096 62.7861 14.904 62.5941 14.744C62.2741 14.52 61.8581 14.392 61.3461 14.392C60.3861 14.392 59.6181 14.712 59.3941 15.256C59.1061 15.832 59.1061 16.632 59.1061 17.272V26.552C59.1061 26.68 58.9781 26.808 58.8501 26.808H53.7941C53.6341 26.808 53.5381 26.68 53.5381 26.552V10.168C53.5381 10.008 53.6341 9.88 53.7941 9.88H58.5301C58.6581 9.88 58.7861 10.008 58.7861 10.168V10.616C58.7861 10.744 58.9141 10.808 59.0101 10.744C62.8181 8.12 66.5301 11.032 66.5621 11.064C66.6901 11.16 66.8181 11.256 66.9461 11.384ZM79.7401 22.424C79.9001 22.424 80.0281 22.552 79.9961 22.712L79.3881 26.712C79.3881 26.84 79.2921 26.936 79.1641 26.968C78.5561 27 77.0201 27.064 76.5401 27.064C76.5081 27.064 76.4761 27.064 76.4441 27.064C73.5961 26.936 72.0601 25.464 72.0601 22.808V14.68C72.0601 14.552 71.9321 14.424 71.8041 14.424H70.0441C69.8841 14.424 69.7881 14.296 69.7881 14.136V10.136C69.7881 10.008 69.8841 9.88 70.0441 9.88H71.8041C71.9321 9.88 72.0601 9.752 72.0601 9.592V4.952C72.0601 4.824 72.1881 4.696 72.3481 4.696H77.0521C77.2121 4.696 77.3401 4.824 77.3401 4.952V9.592C77.3401 9.752 77.4681 9.88 77.5961 9.88H79.3561C79.5161 9.88 79.6441 10.008 79.6441 10.136V14.136C79.6441 14.296 79.5161 14.424 79.3561 14.424H77.5961C77.4681 14.424 77.3401 14.552 77.3401 14.68C77.3401 16.088 77.3401 20.248 77.3401 20.28V20.408C77.3081 20.92 77.2761 21.624 77.6921 22.04C77.9481 22.296 78.3321 22.424 78.8121 22.424H79.7401ZM96.4666 26.52C96.4986 26.68 96.3706 26.808 96.2106 26.808H81.1066C80.9146 26.808 80.7866 26.584 80.8826 26.392L87.4746 14.968C87.5706 14.776 87.4426 14.552 87.2506 14.552H81.6186C81.4906 14.552 81.3626 14.456 81.3306 14.328L80.8506 10.2C80.8186 10.04 80.9466 9.88 81.1066 9.88H95.9226C96.1146 9.88 96.2426 10.104 96.1466 10.296L89.5546 21.752C89.4586 21.912 89.5866 22.136 89.7786 22.136H95.6986C95.8266 22.136 95.9546 22.264 95.9546 22.392L96.4666 26.52Z" fill="url(#paint0_linear_519_15200)" shape-rendering="crispEdges"/>
</g>
<defs>
<filter id="filter0_d_519_15200" x="0.506836" y="0.696014" width="99.9918" height="30.656" filterUnits="userSpaceOnUse" color-interpolation-filters="sRGB">
<feFlood flood-opacity="0" result="BackgroundImageFix"/>
<feColorMatrix in="SourceAlpha" type="matrix" values="0 0 0 0 0 0 0 0 0 0 0 0 0 0 0 0 0 0 127 0" result="hardAlpha"/>
<feOffset/>
<feGaussianBlur stdDeviation="2"/>
<feComposite in2="hardAlpha" operator="out"/>
<feColorMatrix type="matrix" values="0 0 0 0 0 0 0 0 0 0 0 0 0 0 0 0 0 0 0.25 0"/>
<feBlend mode="normal" in2="BackgroundImageFix" result="effect1_dropShadow_519_15200"/>
<feBlend mode="normal" in="SourceGraphic" in2="effect1_dropShadow_519_15200" result="shape"/>
</filter>
<linearGradient id="paint0_linear_519_15200" x1="140.605" y1="18.5" x2="-50.3314" y2="18.5" gradientUnits="userSpaceOnUse">
<stop offset="0.122272" stop-color="#F7FD04" stop-opacity="0.7"/>
<stop offset="0.306745" stop-color="#28DF99" stop-opacity="0.7"/>
<stop offset="0.4985" stop-color="#64B5F6"/>
<stop offset="0.6854" stop-color="#C77DFF"/>
<stop offset="0.871086" stop-color="#FF5C8A"/>
</linearGradient>
</defs>
</svg>
