<svg width="24" height="24" viewBox="0 0 24 24" fill="none" xmlns="http://www.w3.org/2000/svg">
<path d="M23.3535 2.76776C23.7441 2.37724 23.7441 1.74407 23.3535 1.35355L22.6464 0.646439C22.2559 0.255915 21.6227 0.255915 21.2322 0.646439L16.7995 5.0792C15.5414 3.22177 13.4142 2 11 2C7.53833 2 4.66425 4.51215 4.10038 7.81322C1.66822 9.05213 0 11.5802 0 14.5C0 16.5408 0.815578 18.3908 2.13645 19.7422L0.646439 21.2322C0.255915 21.6227 0.255913 22.2559 0.646438 22.6464L1.35354 23.3535C1.74407 23.7441 2.37723 23.7441 2.76776 23.3535L23.3535 2.76776Z" fill="#14213D"/>
<path d="M20.2893 9.08388C20.6496 9.20574 20.9096 9.52147 20.9601 9.89846C20.9865 10.0957 21 10.2965 21 10.5C21 10.8575 20.9582 11.2058 20.879 11.5401C22.7251 12.4271 24 14.3138 24 16.5C24 19.2449 21.99 21.5191 19.361 21.9329C19.249 21.9762 19.1273 22 19 22H9.00003C8.59557 22 8.23093 21.7564 8.07615 21.3827C7.92137 21.009 8.00692 20.5789 8.29292 20.2929L19.2618 9.32405C19.5307 9.0551 19.929 8.96201 20.2893 9.08388Z" fill="#14213D"/>
</svg>
