<svg width="24" height="24" viewBox="0 0 24 24" fill="none" xmlns="http://www.w3.org/2000/svg">
<path d="M3.42091 4.83828C2.43562 4.07194 1 4.77409 1 6.02231V17.9777C1 19.2259 2.43562 19.928 3.42091 19.1617L11.6139 12.7893C11.8575 12.5999 12 12.3086 12 12V17.9777C12 19.2259 13.4356 19.928 14.4209 19.1617L22.6139 12.7893C22.8575 12.5999 23 12.3086 23 12C23 11.6914 22.8575 11.4001 22.6139 11.2106L14.4209 4.83828C13.4356 4.07194 12 4.77409 12 6.02231V12C12 11.6914 11.8575 11.4001 11.6139 11.2106L3.42091 4.83828Z" fill="#14213D"/>
</svg>
