<svg width="238" height="65" viewBox="0 0 238 65" fill="none" xmlns="http://www.w3.org/2000/svg">
<g filter="url(#filter0_d_625_15037)">
<path d="M36.2572 47.2C36.6572 47.2 37.0572 47.6 36.9772 48L35.8572 59.44C35.7772 59.84 35.5372 60.08 35.1372 60.08H4.73719C4.33719 60.08 4.01719 59.76 4.01719 59.28V4.88C4.01719 4.56 4.25719 4.24 4.65719 4.24H35.1372C35.5372 4.24 35.7772 4.48 35.8572 4.88L36.9772 16.24C36.9772 16.72 36.6572 17.04 36.2572 17.04H18.8972C18.4972 17.04 18.1772 17.36 18.1772 17.76V24.56C18.1772 24.96 18.4972 25.28 18.8972 25.28H31.5372C31.9372 25.28 32.2572 25.6 32.2572 26V37.36C32.2572 37.76 31.9372 38.08 31.5372 38.08H18.8972C18.4972 38.08 18.1772 38.4 18.1772 38.8V46.48C18.1772 46.88 18.4972 47.2 18.8972 47.2H36.2572ZM80.5541 17.2C81.0341 17.2 81.3541 17.68 81.1941 18.16L66.5541 59.04C66.4741 59.36 66.2341 59.52 65.9141 59.52H53.5941C53.2741 59.52 53.0341 59.36 52.9541 59.04L38.3141 18.16C38.1541 17.68 38.4741 17.2 38.9541 17.2H50.7141C51.0341 17.2 51.2741 17.44 51.3541 17.68L59.7541 41.2L68.1541 17.68C68.2341 17.44 68.4741 17.2 68.7941 17.2H80.5541ZM122.781 32.48C123.421 34.48 123.741 36.56 123.741 38.72C123.741 39.92 123.581 41.36 123.341 42.64C123.341 42.96 123.021 43.2 122.701 43.2H93.1009C92.5409 43.2 92.2209 43.76 92.4609 44.24C94.3009 47.28 97.5809 49.2 101.181 49.2C104.221 49.2 107.101 47.92 109.101 45.28C109.261 45.12 109.501 44.96 109.821 45.04L121.101 47.04C121.581 47.12 121.821 47.6 121.581 48C121.341 48.56 121.021 49.2 120.861 49.52L120.701 49.84C120.461 50.16 120.301 50.4 120.141 50.8C119.821 51.2 119.581 51.52 119.341 51.84L119.181 52C119.101 52.16 119.021 52.24 118.941 52.32L118.861 52.48C118.701 52.72 118.541 52.88 118.381 53.04L118.221 53.2C117.981 53.52 117.741 53.76 117.501 54L117.341 54.16C117.101 54.4 116.941 54.56 116.781 54.72L116.701 54.8C116.541 54.96 116.301 55.12 116.141 55.28L115.901 55.52L115.661 55.28L115.821 55.52C115.501 55.84 115.261 56.08 114.941 56.24L114.701 56.48C114.301 56.72 113.981 56.96 113.581 57.2L113.501 57.28C113.101 57.52 112.701 57.76 112.221 58L112.141 58.08C112.061 58.16 111.901 58.24 111.821 58.24L111.741 58.32C111.581 58.4 111.341 58.48 111.181 58.56L111.101 58.64C110.701 58.8 110.301 58.96 109.901 59.12V59.2C109.581 59.28 109.421 59.36 109.181 59.44L108.861 59.52C108.621 59.6 108.301 59.76 108.061 59.84H107.981C107.661 59.92 107.341 60 107.021 60.08L106.781 60.16C106.141 60.32 105.501 60.48 104.861 60.56L104.621 60.64C103.901 60.72 103.261 60.8 102.541 60.8H102.301C101.901 60.88 101.581 60.88 101.261 60.88C100.941 60.88 100.621 60.88 100.221 60.8C100.141 60.8 100.061 60.8 99.9809 60.8H99.9009C99.6609 60.8 99.4209 60.8 99.1809 60.72H99.1009C99.0209 60.72 98.9409 60.72 98.8609 60.72C98.4609 60.72 98.1409 60.64 97.9009 60.56H97.8209H97.6609C97.4209 60.56 97.1009 60.48 96.8609 60.4L96.5409 60.32C96.3009 60.32 96.0609 60.24 95.8209 60.16H95.7409C95.6609 60.16 95.6609 60.16 95.5809 60.16C95.1809 60 94.8609 59.92 94.6209 59.84C94.3009 59.76 93.9809 59.68 93.6609 59.52C93.5809 59.52 93.5009 59.52 93.4209 59.44C93.1809 59.36 92.9409 59.28 92.7009 59.2L92.6209 59.12C92.5409 59.12 92.5409 59.12 92.4609 59.04C92.1409 58.96 91.8209 58.8 91.5809 58.64H91.5009C91.2609 58.56 90.9409 58.4 90.7009 58.24C90.6209 58.16 90.5409 58.16 90.4609 58.08H90.3809C90.2209 58 89.9809 57.84 89.8209 57.76L89.5009 57.6C89.2609 57.44 89.0209 57.28 88.7009 57.04C86.0609 55.28 83.7409 52.88 82.0609 50.16C81.9009 49.92 81.8209 49.76 81.6609 49.52L81.5809 49.36C81.5009 49.2 81.3409 48.96 81.2609 48.72L81.1809 48.56C81.1009 48.48 81.1009 48.48 81.1009 48.4C80.6209 47.52 80.3009 46.56 79.9809 45.6C79.7409 45.12 79.6609 44.64 79.5009 44.24C79.4209 43.92 79.3409 43.52 79.2609 43.2C79.0209 42.08 78.9409 40.96 78.8609 39.84C78.8609 39.44 78.8609 39.12 78.8609 38.72C78.8609 38.32 78.8609 37.92 78.8609 37.6C78.9409 35.6 79.3409 33.68 79.9809 31.76C80.1409 31.12 80.3809 30.64 80.6209 30.08C80.7009 29.76 80.8609 29.52 81.0209 29.2C81.0209 29.12 81.0209 29.04 81.1009 28.96L81.1809 28.8C81.1809 28.8 81.2609 28.72 81.2609 28.64C81.3409 28.56 81.3409 28.48 81.4209 28.4L81.5809 28.08C81.7409 27.76 81.9009 27.52 82.0609 27.2C83.7409 24.48 86.0609 22.16 88.7009 20.32C89.0209 20.16 89.2609 20 89.5009 19.84L89.8209 19.68C89.9809 19.52 90.2209 19.44 90.3809 19.36L90.4609 19.28C90.5409 19.28 90.6209 19.2 90.7009 19.2C90.9409 19.04 91.2609 18.88 91.5009 18.72C91.8209 18.64 92.1409 18.48 92.4609 18.32C92.5409 18.32 92.5409 18.32 92.6209 18.24H92.7009C92.9409 18.16 93.1809 18.08 93.4209 18V17.92C93.5009 17.92 93.5809 17.92 93.6609 17.84C93.9809 17.76 94.3009 17.68 94.6209 17.52C94.9409 17.44 95.2609 17.36 95.5809 17.28C95.6609 17.28 95.6609 17.28 95.7409 17.2H95.8209C96.0609 17.12 96.3009 17.12 96.5409 17.04H96.7009C97.0209 16.96 97.5009 16.88 97.8209 16.8C97.9009 16.8 97.9009 16.8 97.9009 16.8C98.1409 16.8 98.4609 16.72 98.8609 16.72C98.9409 16.72 99.0209 16.64 99.1009 16.64H99.1809C99.4209 16.64 99.6609 16.64 99.9009 16.64H99.9809C100.061 16.56 100.141 16.56 100.221 16.56C100.621 16.56 100.941 16.56 101.261 16.56C101.581 16.56 101.901 16.56 102.301 16.56L102.541 16.64C103.261 16.64 103.901 16.72 104.541 16.8L104.861 16.88C105.501 16.96 106.141 17.04 106.781 17.2L107.021 17.28C107.341 17.36 107.661 17.52 107.981 17.6H108.061C108.301 17.68 108.621 17.76 108.861 17.84C108.941 17.92 109.021 17.92 109.101 18C109.421 18.08 109.581 18.16 109.821 18.24H109.981C110.301 18.4 110.701 18.64 111.101 18.8H111.181C111.341 18.96 111.581 19.04 111.741 19.12L111.661 19.44L111.821 19.12C111.901 19.2 112.061 19.28 112.141 19.36C112.541 19.52 113.101 19.92 113.501 20.16C113.901 20.4 114.301 20.64 114.621 20.96H114.701C114.781 21.04 114.861 21.12 114.941 21.12C115.261 21.36 115.501 21.6 115.821 21.84L116.061 22C116.301 22.24 116.461 22.4 116.701 22.64L116.781 22.72C116.941 22.88 117.101 23.04 117.341 23.2L117.421 23.36C117.741 23.68 117.981 23.92 118.221 24.16L117.981 24.48L118.221 24.24L118.381 24.4C118.541 24.56 118.701 24.72 118.861 24.88L118.941 25.04C119.101 25.28 119.341 25.52 119.501 25.76C119.661 25.92 119.741 26.16 119.901 26.32L120.141 26.64C120.221 26.88 120.301 27.04 120.461 27.2L120.861 27.84C121.661 29.36 122.301 30.88 122.781 32.48ZM109.821 33.92C110.221 33.92 110.541 33.52 110.461 33.12C109.981 30 106.381 27.52 101.821 27.52C97.5809 27.52 93.6609 30 93.1009 33.12C93.0209 33.52 93.3409 33.92 93.7409 33.92H109.821ZM160.115 20.96C164.435 25.28 165.155 28.8 165.155 35.04V58.88C165.155 59.2 164.835 59.52 164.435 59.52H151.875C151.475 59.52 151.155 59.2 151.155 58.88V35.68C151.155 34.16 151.075 32.32 150.435 30.88C150.115 30.24 149.715 29.76 149.235 29.36C148.435 28.8 147.395 28.48 146.115 28.48C143.715 28.48 141.795 29.28 141.235 30.64C140.515 32.08 140.515 34.08 140.515 35.68V58.88C140.515 59.2 140.195 59.52 139.875 59.52H127.235C126.835 59.52 126.595 59.2 126.595 58.88V17.92C126.595 17.52 126.835 17.2 127.235 17.2H139.075C139.395 17.2 139.715 17.52 139.715 17.92V19.04C139.715 19.36 140.035 19.52 140.275 19.36C149.795 12.8 159.075 20.08 159.155 20.16C159.475 20.4 159.795 20.64 160.115 20.96ZM192.1 48.56C192.5 48.56 192.82 48.88 192.74 49.28L191.22 59.28C191.22 59.6 190.98 59.84 190.66 59.92C189.14 60 185.3 60.16 184.1 60.16C184.02 60.16 183.94 60.16 183.86 60.16C176.74 59.84 172.9 56.16 172.9 49.52V29.2C172.9 28.88 172.58 28.56 172.26 28.56H167.86C167.46 28.56 167.22 28.24 167.22 27.84V17.84C167.22 17.52 167.46 17.2 167.86 17.2H172.26C172.58 17.2 172.9 16.88 172.9 16.48V4.88C172.9 4.56 173.22 4.24 173.62 4.24H185.38C185.78 4.24 186.1 4.56 186.1 4.88V16.48C186.1 16.88 186.42 17.2 186.74 17.2H191.14C191.54 17.2 191.86 17.52 191.86 17.84V27.84C191.86 28.24 191.54 28.56 191.14 28.56H186.74C186.42 28.56 186.1 28.88 186.1 29.2C186.1 32.72 186.1 43.12 186.1 43.2V43.52C186.02 44.8 185.94 46.56 186.98 47.6C187.62 48.24 188.58 48.56 189.78 48.56H192.1ZM233.917 58.8C233.997 59.2 233.677 59.52 233.277 59.52H195.517C195.037 59.52 194.717 58.96 194.957 58.48L211.437 29.92C211.677 29.44 211.357 28.88 210.877 28.88H196.797C196.477 28.88 196.157 28.64 196.077 28.32L194.877 18C194.797 17.6 195.117 17.2 195.517 17.2H232.557C233.037 17.2 233.357 17.76 233.117 18.24L216.637 46.88C216.397 47.28 216.717 47.84 217.197 47.84H231.997C232.317 47.84 232.637 48.16 232.637 48.48L233.917 58.8Z" fill="url(#paint0_linear_625_15037)" shape-rendering="crispEdges"/>
</g>
<defs>
<filter id="filter0_d_625_15037" x="0.0172119" y="0.23999" width="237.979" height="64.64" filterUnits="userSpaceOnUse" color-interpolation-filters="sRGB">
<feFlood flood-opacity="0" result="BackgroundImageFix"/>
<feColorMatrix in="SourceAlpha" type="matrix" values="0 0 0 0 0 0 0 0 0 0 0 0 0 0 0 0 0 0 127 0" result="hardAlpha"/>
<feOffset/>
<feGaussianBlur stdDeviation="2"/>
<feComposite in2="hardAlpha" operator="out"/>
<feColorMatrix type="matrix" values="0 0 0 0 0 0 0 0 0 0 0 0 0 0 0 0 0 0 0.25 0"/>
<feBlend mode="normal" in2="BackgroundImageFix" result="effect1_dropShadow_625_15037"/>
<feBlend mode="normal" in="SourceGraphic" in2="effect1_dropShadow_625_15037" result="shape"/>
</filter>
<linearGradient id="paint0_linear_625_15037" x1="297.744" y1="30.5" x2="-81.0233" y2="30.5" gradientUnits="userSpaceOnUse">
<stop offset="0.122272" stop-color="#F7FD04" stop-opacity="0.7"/>
<stop offset="0.306745" stop-color="#28DF99" stop-opacity="0.7"/>
<stop offset="0.4985" stop-color="#64B5F6"/>
<stop offset="0.6854" stop-color="#C77DFF"/>
<stop offset="0.871086" stop-color="#FF5C8A"/>
</linearGradient>
</defs>
</svg>
