<svg width="24" height="24" viewBox="0 0 24 24" fill="none" xmlns="http://www.w3.org/2000/svg">
<path d="M8.38268 3.07609C8.75636 3.23087 9 3.59551 9 3.99997V6.5H15.5C16.9587 6.5 18.3576 7.07946 19.3891 8.11091C20.4205 9.14236 21 10.5413 21 12V20C21 20.5523 20.5523 21 20 21H19C18.4477 21 18 20.5523 18 20V12C18 11.337 17.7366 10.7011 17.2678 10.2322C16.7989 9.76339 16.163 9.5 15.5 9.5H9V12C9 12.4044 8.75636 12.7691 8.38268 12.9238C8.00901 13.0786 7.57889 12.9931 7.29289 12.7071L3.29289 8.70707C2.90237 8.31655 2.90237 7.68339 3.29289 7.29286L7.29289 3.29286C7.57889 3.00686 8.00901 2.92131 8.38268 3.07609Z" fill="#14213D"/>
</svg>
