<svg width="24" height="24" viewBox="0 0 24 24" fill="none" xmlns="http://www.w3.org/2000/svg">
<path fill-rule="evenodd" clip-rule="evenodd" d="M2 4.5C2 3.11929 3.11929 2 4.5 2H19.5C20.8807 2 22 3.11929 22 4.5V19.5C22 20.8807 20.8807 22 19.5 22H4.5C3.11929 22 2 20.8807 2 19.5V4.5ZM18.787 9.57537C19.1767 9.18401 19.1753 8.55084 18.784 8.16116L18.0753 7.45558C17.684 7.0659 17.0508 7.06726 16.6611 7.45863L10.8895 13.2551L7.56845 9.98027C7.1752 9.59249 6.54205 9.59692 6.15427 9.99018L5.45213 10.7022C5.06436 11.0955 5.06879 11.7286 5.46204 12.1164L10.2003 16.7888C10.5922 17.1752 11.2228 17.1723 11.6111 16.7823L18.787 9.57537Z" fill="#14213D"/>
</svg>
