<svg width="24" height="24" viewBox="0 0 24 24" fill="none" xmlns="http://www.w3.org/2000/svg">
<path fill-rule="evenodd" clip-rule="evenodd" d="M23 17C23 19.2091 21.2091 21 19 21H5C2.79086 21 1 19.2091 1 17V12.5183C1 12.1784 1.08662 11.8441 1.25169 11.547L5.42849 4.02871C5.78123 3.39378 6.45047 3 7.17681 3H16.8232C17.5495 3 18.2188 3.39378 18.5715 4.02871L22.7483 11.547C22.9134 11.8441 23 12.1784 23 12.5183V17ZM19.5845 11H16C15.6656 11 15.3534 11.1671 15.1679 11.4453L13.4648 14H10.5352L8.83205 11.4453C8.64658 11.1671 8.33435 11 8 11H4.41545L7.47101 5.5H16.529L19.5845 11Z" fill="#14213D"/>
</svg>
