<svg width="24" height="24" viewBox="0 0 24 24" fill="none" xmlns="http://www.w3.org/2000/svg">
<path d="M8.00003 8C7.59557 8 7.23093 7.75636 7.07615 7.38268C6.92137 7.00901 7.00692 6.57889 7.29292 6.29289L11.2929 2.29289C11.6834 1.90237 12.3166 1.90237 12.7071 2.29289L16.7071 6.29289C16.9931 6.57889 17.0787 7.00901 16.9239 7.38268C16.7691 7.75636 16.4045 8 16 8H13.5V16C13.5 16.5523 13.0523 17 12.5 17H11.5C10.9477 17 10.5 16.5523 10.5 16V8H8.00003Z" fill="#14213D"/>
<path d="M20 19C20.5523 19 21 19.4477 21 20V21C21 21.5523 20.5523 22 20 22H4C3.44772 22 3 21.5523 3 21V20C3 19.4477 3.44772 19 4 19H20Z" fill="#14213D"/>
</svg>
