<svg width="24" height="24" viewBox="0 0 24 24" fill="none" xmlns="http://www.w3.org/2000/svg">
<path fill-rule="evenodd" clip-rule="evenodd" d="M1.94971 4.44987C1.94969 3.06915 3.06898 1.94985 4.4497 1.94984L12.0209 1.94983C12.8165 1.94983 13.5796 2.2659 14.1422 2.82851L22.0417 10.728C23.6038 12.2901 23.6038 14.8228 22.0417 16.3849L16.3848 22.0417C14.8227 23.6038 12.2901 23.6038 10.728 22.0417L2.82846 14.1422C2.26586 13.5796 1.94979 12.8166 1.94978 12.0209L1.94971 4.44987ZM8.5 10C9.32843 10 10 9.32843 10 8.5C10 7.67157 9.32843 7 8.5 7C7.67157 7 7 7.67157 7 8.5C7 9.32843 7.67157 10 8.5 10Z" fill="#14213D"/>
</svg>
