<svg width="24" height="24" viewBox="0 0 24 24" fill="none" xmlns="http://www.w3.org/2000/svg">
<path d="M6.5 15.75C6.5 14.3693 5.38071 13.25 4 13.25C2.61929 13.25 1.5 14.3693 1.5 15.75C1.5 17.1307 2.61929 18.25 4 18.25C5.38071 18.25 6.5 17.1307 6.5 15.75Z" fill="#14213D"/>
<path d="M6.5 8.25C6.5 6.86929 5.38071 5.75 4 5.75C2.61929 5.75 1.5 6.86929 1.5 8.25C1.5 9.63071 2.61929 10.75 4 10.75C5.38071 10.75 6.5 9.63071 6.5 8.25Z" fill="#14213D"/>
<path d="M12 13.25C13.3807 13.25 14.5 14.3693 14.5 15.75C14.5 17.1307 13.3807 18.25 12 18.25C10.6193 18.25 9.5 17.1307 9.5 15.75C9.5 14.3693 10.6193 13.25 12 13.25Z" fill="#14213D"/>
<path d="M14.5 8.25C14.5 6.86929 13.3807 5.75 12 5.75C10.6193 5.75 9.5 6.86929 9.5 8.25C9.5 9.63071 10.6193 10.75 12 10.75C13.3807 10.75 14.5 9.63071 14.5 8.25Z" fill="#14213D"/>
<path d="M20 13.25C21.3807 13.25 22.5 14.3693 22.5 15.75C22.5 17.1307 21.3807 18.25 20 18.25C18.6193 18.25 17.5 17.1307 17.5 15.75C17.5 14.3693 18.6193 13.25 20 13.25Z" fill="#14213D"/>
<path d="M22.5 8.25C22.5 6.86929 21.3807 5.75 20 5.75C18.6193 5.75 17.5 6.86929 17.5 8.25C17.5 9.63071 18.6193 10.75 20 10.75C21.3807 10.75 22.5 9.63071 22.5 8.25Z" fill="#14213D"/>
</svg>
