<svg width="24" height="24" viewBox="0 0 24 24" fill="none" xmlns="http://www.w3.org/2000/svg">
<path d="M13.1602 21C13.1602 21.5523 13.6079 22 14.1602 22H15.1602C15.7124 22 16.1602 21.5523 16.1602 21L16.1602 3C16.1602 2.44772 15.7124 2 15.1602 2H14.1602C13.6079 2 13.1602 2.44772 13.1602 3L13.1602 21Z" fill="#14213D"/>
<path d="M2.5 21C2.5 21.5523 2.94772 22 3.5 22H4.5C5.05228 22 5.5 21.5523 5.5 21V11C5.5 10.4477 5.05228 10 4.5 10H3.5C2.94772 10 2.5 10.4477 2.5 11V21Z" fill="#14213D"/>
<path d="M8.83008 22C8.27779 22 7.83008 21.5523 7.83008 21L7.83008 13C7.83008 12.4477 8.27779 12 8.83008 12H9.83008C10.3824 12 10.8301 12.4477 10.8301 13V21C10.8301 21.5523 10.3824 22 9.83008 22H8.83008Z" fill="#14213D"/>
<path d="M18.4902 21C18.4902 21.5523 18.938 22 19.4902 22H20.4902C21.0425 22 21.4902 21.5523 21.4902 21V7C21.4902 6.44772 21.0425 6 20.4902 6H19.4902C18.938 6 18.4902 6.44772 18.4902 7V21Z" fill="#14213D"/>
</svg>
