<svg width="24" height="24" viewBox="0 0 24 24" fill="none" xmlns="http://www.w3.org/2000/svg">
<path d="M15.4153 1.61732C15.57 1.24364 15.9347 1 16.3391 1H21.996C22.5483 1 22.996 1.44772 22.996 2V7.65685C22.996 8.06132 22.7524 8.42595 22.3787 8.58073C22.005 8.73551 21.5749 8.64996 21.2889 8.36396L19.5211 6.59613L15.2784 10.8388C14.8879 11.2293 14.2547 11.2293 13.8642 10.8388L13.1571 10.1317C12.7666 9.74116 12.7666 9.108 13.1571 8.71747L17.3997 4.47481L15.632 2.70711C15.346 2.42111 15.2605 1.99099 15.4153 1.61732Z" fill="#14213D"/>
<path d="M2.00589 4.54166C1.905 3.11236 3.11531 2 4.54522 2H7.60606C8.34006 2 9.00207 2.44226 9.28438 3.1212L10.5643 6.19946C10.8761 6.94932 10.6548 7.81544 10.0218 8.32292L9.22394 8.96254C8.86788 9.24798 8.74683 9.74018 8.95794 10.1448C10.0429 12.2241 11.6464 13.9888 13.5964 15.2667C14.008 15.5364 14.5517 15.4291 14.8588 15.0445L15.6902 14.003C16.1966 13.3687 17.0609 13.147 17.8092 13.4594L20.8811 14.742C21.5587 15.0249 22 15.6883 22 16.4238V17.4866H21.9589V19.4498C21.9589 20.8827 20.8489 22.0955 19.4226 21.9941C10.3021 21.3452 2.65247 13.7017 2.00589 4.54166Z" fill="#14213D"/>
</svg>
