<svg width="24" height="24" viewBox="0 0 24 24" fill="none" xmlns="http://www.w3.org/2000/svg">
<path fill-rule="evenodd" clip-rule="evenodd" d="M14.3333 2.5H6.5C5.94772 2.5 5.5 2.94771 5.5 3.5V20.5C5.5 21.0523 5.94772 21.5 6.5 21.5H15.3077C16.7253 21.5 18.058 20.8888 19.0208 19.8458C19.9798 18.8069 20.5 17.4217 20.5 16C20.5 14.5783 19.9798 13.1931 19.0208 12.1542C18.802 11.9172 18.5642 11.7025 18.3106 11.5122C19.0848 10.5188 19.5 9.27337 19.5 8C19.5 6.58139 18.9846 5.19744 18.0318 4.15799C17.0749 3.11416 15.7478 2.5 14.3333 2.5ZM14.3333 10.5C14.8638 10.5 15.4019 10.2713 15.8203 9.81484C16.2428 9.35401 16.5 8.70312 16.5 8C16.5 7.29688 16.2428 6.64599 15.8203 6.18516C15.4019 5.7287 14.8638 5.5 14.3333 5.5H8.5V10.5H14.3333ZM8.5 13.5V18.5H15.3077C15.8486 18.5 16.3942 18.2683 16.8163 17.811C17.2422 17.3497 17.5 16.7001 17.5 16C17.5 15.2999 17.2422 14.6503 16.8163 14.189C16.3942 13.7317 15.8486 13.5 15.3077 13.5H8.5Z" fill="#14213D"/>
</svg>
