<svg width="24" height="24" viewBox="0 0 24 24" fill="none" xmlns="http://www.w3.org/2000/svg">
<path d="M20 5C20.5523 5 21 4.55228 21 4V3C21 2.44772 20.5523 2 20 2H4C3.44772 2 3 2.44772 3 3V4C3 4.55228 3.44772 5 4 5H20Z" fill="#14213D"/>
<path d="M8.00003 16C7.59557 16 7.23093 16.2436 7.07615 16.6173C6.92137 16.991 7.00692 17.4211 7.29292 17.7071L11.2929 21.7071C11.6834 22.0976 12.3166 22.0976 12.7071 21.7071L16.7071 17.7071C16.9931 17.4211 17.0787 16.991 16.9239 16.6173C16.7691 16.2436 16.4045 16 16 16H13.5V8C13.5 7.44771 13.0523 7 12.5 7H11.5C10.9477 7 10.5 7.44772 10.5 8V16H8.00003Z" fill="#14213D"/>
</svg>
