<svg width="24" height="24" viewBox="0 0 24 24" fill="none" xmlns="http://www.w3.org/2000/svg">
<path d="M4 6H12C12.663 6 13.2989 6.26339 13.7678 6.73223C14.2366 7.20107 14.5 7.83696 14.5 8.5V15H12C11.5956 15 11.2309 15.2436 11.0761 15.6173C10.9214 15.991 11.0069 16.4211 11.2929 16.7071L14.7884 20.2026C14.7914 20.2056 14.7944 20.2086 14.7974 20.2116L15.2929 20.7071C15.6834 21.0976 16.3166 21.0976 16.7071 20.7071L20.7071 16.7071C20.9931 16.4211 21.0787 15.991 20.9239 15.6173C20.7691 15.2436 20.4045 15 20 15H17.5V8.5C17.5 7.04131 16.9205 5.64236 15.8891 4.61091C14.8576 3.57946 13.4587 3 12 3H4C3.44772 3 3 3.44772 3 4V5C3 5.55228 3.44772 6 4 6Z" fill="#14213D"/>
</svg>
