<svg width="24" height="24" viewBox="0 0 24 24" fill="none" xmlns="http://www.w3.org/2000/svg">
<path fill-rule="evenodd" clip-rule="evenodd" d="M1 12C1 5.92487 5.92487 1 12 1C18.0751 1 23 5.92487 23 12C23 18.0751 18.0751 23 12 23C5.92487 23 1 18.0751 1 12ZM10.5 9C10.5 9.82843 9.82843 10.5 9 10.5C8.17157 10.5 7.5 9.82843 7.5 9C7.5 8.17157 8.17157 7.5 9 7.5C9.82843 7.5 10.5 8.17157 10.5 9ZM7 15C7 15.5523 7.44772 16 8 16H16C16.5523 16 17 15.5523 17 15C17 14.4477 16.5523 14 16 14H8C7.44772 14 7 14.4477 7 15ZM16.5 9C16.5 9.82843 15.8284 10.5 15 10.5C14.1716 10.5 13.5 9.82843 13.5 9C13.5 8.17157 14.1716 7.5 15 7.5C15.8284 7.5 16.5 8.17157 16.5 9Z" fill="#14213D"/>
</svg>
