<svg width="24" height="24" viewBox="0 0 24 24" fill="none" xmlns="http://www.w3.org/2000/svg">
<path fill-rule="evenodd" clip-rule="evenodd" d="M1 12C1 18.0751 5.92487 23 12 23C18.0751 23 23 18.0751 23 12C23 5.92487 18.0751 1 12 1C5.92487 1 1 5.92487 1 12ZM7.83335 12C7.4963 12 7.19244 12.2088 7.06346 12.5291C6.93447 12.8494 7.00577 13.2181 7.2441 13.4632L11.4107 17.7489C11.7362 18.0837 12.2638 18.0837 12.5893 17.7489L16.7559 13.4632C16.9942 13.2181 17.0655 12.8494 16.9365 12.5291C16.8076 12.2088 16.5037 12 16.1666 12H14V7C14 6.44771 13.5523 6 13 6H11C10.4477 6 10 6.44771 10 7V12H7.83335Z" fill="#14213D"/>
</svg>
