<svg width="22" height="23" viewBox="0 0 22 23" fill="none" xmlns="http://www.w3.org/2000/svg">
<path d="M11.2266 9.85286H21.8246C21.9415 10.5217 22 11.1606 22 11.7695C22 13.9358 21.5566 15.8699 20.6698 17.5719C19.7829 19.274 18.5185 20.6042 16.8764 21.5625C15.2343 22.5208 13.3511 23 11.2266 23C9.69657 23 8.23965 22.698 6.85581 22.0941C5.47198 21.4901 4.27818 20.674 3.27442 19.6458C2.27065 18.6176 1.47398 17.3947 0.884385 15.9772C0.294795 14.5597 0 13.0673 0 11.5C0 9.93273 0.294795 8.44032 0.884385 7.02279C1.47398 5.60525 2.27065 4.38238 3.27442 3.35417C4.27818 2.32595 5.47198 1.50987 6.85581 0.905924C8.23965 0.301975 9.69657 0 11.2266 0C14.1502 0 16.6596 1.00326 18.7548 3.00977L15.6997 6.01953C14.501 4.8316 13.01 4.23763 11.2266 4.23763C9.96943 4.23763 8.80731 4.56207 7.7402 5.21094C6.67309 5.85981 5.82769 6.74078 5.20399 7.85384C4.58029 8.96691 4.26844 10.1823 4.26844 11.5C4.26844 12.8177 4.58029 14.0331 5.20399 15.1462C5.82769 16.2592 6.67309 17.1402 7.7402 17.7891C8.80731 18.4379 9.96943 18.7624 11.2266 18.7624C12.0744 18.7624 12.854 18.6426 13.5654 18.403C14.2769 18.1634 14.8616 17.8639 15.3196 17.5046C15.7776 17.1452 16.1772 16.7359 16.5183 16.2767C16.8594 15.8175 17.1103 15.3832 17.2711 14.974C17.4319 14.5647 17.5415 14.1753 17.6 13.806H11.2266V9.85286Z" fill="#434D64"/>
</svg>
