<svg width="24" height="24" viewBox="0 0 24 24" fill="none" xmlns="http://www.w3.org/2000/svg">
<path d="M5 4C5 3.44772 4.55228 3 4 3H3C2.44772 3 2 3.44772 2 4V20C2 20.5523 2.44772 21 3 21H4C4.55228 21 5 20.5523 5 20V4Z" fill="#14213D"/>
<path d="M16 16C16 16.4044 16.2436 16.7691 16.6173 16.9239C16.991 17.0786 17.4211 16.9931 17.7071 16.7071L21.7071 12.7071C22.0976 12.3166 22.0976 11.6834 21.7071 11.2929L17.7071 7.29286C17.4211 7.00687 16.991 6.92131 16.6173 7.07609C16.2436 7.23087 16 7.59551 16 7.99997V10.5H8C7.44771 10.5 7 10.9477 7 11.5V12.5C7 13.0523 7.44772 13.5 8 13.5H16V16Z" fill="#14213D"/>
</svg>
