<svg width="24" height="24" viewBox="0 0 24 24" fill="none" xmlns="http://www.w3.org/2000/svg">
<path d="M4 0.5C3.07174 0.5 2.1815 0.868749 1.52513 1.52513C0.868749 2.1815 0.5 3.07174 0.5 4V13C0.5 13.9283 0.868749 14.8185 1.52513 15.4749C2.1815 16.1312 3.07174 16.5 4 16.5H6V9C6 7.34315 7.34315 6 9 6H16.5V4C16.5 3.07174 16.1312 2.1815 15.4749 1.52513C14.8185 0.868749 13.9283 0.5 13 0.5H4Z" fill="#14213D"/>
<path d="M8 10.8125C8 9.2592 9.2592 8 10.8125 8H20.1875C21.7408 8 23 9.2592 23 10.8125V20.1875C23 21.7408 21.7408 23 20.1875 23H10.8125C9.2592 23 8 21.7408 8 20.1875V10.8125Z" fill="#14213D"/>
</svg>
