<svg width="24" height="24" viewBox="0 0 24 24" fill="none" xmlns="http://www.w3.org/2000/svg">
<path d="M2 5.5C2 4.94772 2.44772 4.5 3 4.5H21C21.5523 4.5 22 4.94772 22 5.5V6.5C22 7.05228 21.5523 7.5 21 7.5H3C2.44772 7.5 2 7.05228 2 6.5V5.5Z" fill="#14213D"/>
<path d="M2 11.5C2 10.9477 2.44772 10.5 3 10.5H21C21.5523 10.5 22 10.9477 22 11.5V12.5C22 13.0523 21.5523 13.5 21 13.5H3C2.44772 13.5 2 13.0523 2 12.5V11.5Z" fill="#14213D"/>
<path d="M3 16.5C2.44772 16.5 2 16.9477 2 17.5V18.5C2 19.0523 2.44772 19.5 3 19.5H21C21.5523 19.5 22 19.0523 22 18.5V17.5C22 16.9477 21.5523 16.5 21 16.5H3Z" fill="#14213D"/>
</svg>
