<svg width="24" height="24" viewBox="0 0 24 24" fill="none" xmlns="http://www.w3.org/2000/svg">
<path fill-rule="evenodd" clip-rule="evenodd" d="M12 1C5.92487 1 1 5.92487 1 12C1 18.0751 5.92487 23 12 23C18.0751 23 23 18.0751 23 12C23 5.92487 18.0751 1 12 1ZM12 7.83335C12 7.4963 11.7912 7.19244 11.4709 7.06346C11.1506 6.93447 10.7819 7.00577 10.5368 7.2441L6.25105 11.4107C5.91632 11.7362 5.91632 12.2638 6.25105 12.5893L10.5368 16.7559C10.7819 16.9942 11.1506 17.0655 11.4709 16.9365C11.7912 16.8076 12 16.5037 12 16.1666V14H17C17.5523 14 18 13.5523 18 13V11C18 10.4477 17.5523 10 17 10H12V7.83335Z" fill="#14213D"/>
</svg>
