<svg width="24" height="24" viewBox="0 0 24 24" fill="none" xmlns="http://www.w3.org/2000/svg">
<path d="M9.95971 12.626L9.61558 12.1525C9.20692 11.5903 8.83851 10.9967 8.51463 10.376C8.1851 9.74453 8.38248 8.99622 8.91117 8.57239L9.70905 7.93277C10.1682 7.56472 10.3291 6.93599 10.1026 6.3914L8.82267 3.31314C8.61773 2.82026 8.13758 2.49997 7.60603 2.49997H4.54519C3.35716 2.49997 2.42739 3.4123 2.50462 4.50642C2.78339 8.45575 4.40233 12.1212 6.89852 15.0344L7.19973 15.386L6.87239 15.7133L1.99996 20.5857C1.8047 20.781 1.8047 21.0976 1.99996 21.2929L2.70707 22C2.90233 22.1952 3.21891 22.1952 3.41418 22L22 3.41418L22.3535 3.76773L22 3.41418C22.1952 3.21891 22.1952 2.90233 22 2.70707L21.2929 1.99996C21.0976 1.8047 20.781 1.8047 20.5857 1.99996M9.95971 12.626L20.5857 1.99996M9.95971 12.626L10.3736 12.2121L20.5857 1.99996M9.95971 12.626L20.2322 1.64641L20.5857 1.99996M19.458 21.4953C16.2306 21.2657 13.1883 20.1342 10.5924 18.3538L13.2855 15.6607C13.2978 15.6687 13.31 15.6768 13.3223 15.6848C13.9661 16.1067 14.7939 15.927 15.2495 15.3564L16.0809 14.315C16.4482 13.8549 17.0746 13.6945 17.6166 13.9208L20.6884 15.2034C21.1794 15.4084 21.5 15.8895 21.5 16.4238V19.5C21.5 20.6683 20.5701 21.5744 19.458 21.4953Z" fill="#14213D" stroke="#14213D"/>
</svg>
