<svg width="24" height="24" viewBox="0 0 24 24" fill="none" xmlns="http://www.w3.org/2000/svg">
<path fill-rule="evenodd" clip-rule="evenodd" d="M4.10038 7.81322C4.66425 4.51215 7.53833 2 11 2C13.8263 2 16.2594 3.67456 17.3649 6.0832C19.4367 6.48665 21 8.31054 21 10.5C21 10.8575 20.9581 11.2058 20.879 11.5401C22.7251 12.427 24 14.3137 24 16.5C24 19.2449 21.99 21.5191 19.361 21.9329C19.249 21.9762 19.1273 22 19 22H7.5C3.35786 22 0 18.6421 0 14.5C0 11.5802 1.66822 9.05213 4.10038 7.81322ZM8.50003 12.5C8.09557 12.5 7.73093 12.2564 7.57615 11.8827C7.42137 11.509 7.50692 11.0789 7.79292 10.7929L11.2929 7.29289C11.6834 6.90237 12.3166 6.90237 12.7071 7.29289L16.2071 10.7929C16.4931 11.0789 16.5787 11.509 16.4239 11.8827C16.2691 12.2564 15.9045 12.5 15.5 12.5H13.5V18C13.5 18.5523 13.0523 19 12.5 19H11.5C10.9477 19 10.5 18.5523 10.5 18V12.5H8.50003Z" fill="#14213D"/>
</svg>
