<svg width="24" height="24" viewBox="0 0 24 24" fill="none" xmlns="http://www.w3.org/2000/svg">
<path fill-rule="evenodd" clip-rule="evenodd" d="M12 1C18.0751 1 23 5.92487 23 12C23 18.0751 18.0751 23 12 23C5.92487 23 1 18.0751 1 12C1 5.92487 5.92487 1 12 1ZM12 7.83335C12 7.4963 12.2088 7.19244 12.5291 7.06346C12.8494 6.93447 13.2181 7.00577 13.4632 7.2441L17.7489 11.4107C18.0837 11.7362 18.0837 12.2638 17.7489 12.5893L13.4632 16.7559C13.2181 16.9942 12.8494 17.0655 12.5291 16.9365C12.2088 16.8076 12 16.5037 12 16.1666V14H7C6.44771 14 6 13.5523 6 13V11C6 10.4477 6.44771 10 7 10H12V7.83335Z" fill="#14213D"/>
</svg>
