<svg width="24" height="24" viewBox="0 0 24 24" fill="none" xmlns="http://www.w3.org/2000/svg">
<path d="M11.9322 2.14611C11.6117 2.00663 11.2569 1.96564 10.9126 2.02906C10.5684 2.09244 10.2522 2.25698 10.0027 2.49935L1.54101 10.7164C1.36883 10.8837 1.23276 11.0838 1.14013 11.3041C1.04752 11.5244 1 11.7609 1 11.9994C1 12.238 1.04752 12.4744 1.14013 12.6947C1.23276 12.9151 1.36907 13.1154 1.54125 13.2827L10.0028 21.4997C10.2524 21.742 10.5684 21.9064 10.9126 21.9698C11.2569 22.0332 11.6117 21.9922 11.9322 21.8528C12.2526 21.7134 12.5229 21.4826 12.7117 21.1916C12.9003 20.9008 12.9999 20.5617 13 20.2164L13 17.0208C15.2945 17.1206 16.7356 17.5717 17.8244 18.2297C19.0943 18.9971 19.9872 20.0973 21.2216 21.6278C21.4878 21.9578 21.9331 22.0841 22.3329 21.943C22.7327 21.8018 23 21.424 23 21C23 17.4414 22.4987 13.9586 20.8455 11.341C19.2742 8.85318 16.7414 7.26795 13 7.03095L13 3.78241C12.9999 3.43711 12.9003 3.09808 12.7117 2.80727C12.5229 2.51629 12.2526 2.2855 11.9322 2.14611Z" fill="#14213D"/>
</svg>
