<svg width="24" height="24" viewBox="0 0 24 24" fill="none" xmlns="http://www.w3.org/2000/svg">
<path d="M16.25 19.75C15.6977 19.75 15.25 20.1977 15.25 20.75V21.75C15.25 22.3023 15.6977 22.75 16.25 22.75H19.75C21.1307 22.75 22.25 21.6307 22.25 20.25V4.25C22.25 2.86929 21.1307 1.75 19.75 1.75H16.25C15.6977 1.75 15.25 2.19772 15.25 2.75V3.75C15.25 4.30228 15.6977 4.75 16.25 4.75H19.25V19.75H16.25Z" fill="#14213D"/>
<path d="M10.75 16.25C10.75 16.6544 10.9936 17.0191 11.3673 17.1739C11.741 17.3286 12.1711 17.2431 12.4571 16.9571L16.4571 12.9571C16.8476 12.5666 16.8476 11.9334 16.4571 11.5429L12.4571 7.54286C12.1711 7.25687 11.741 7.17131 11.3673 7.32609C10.9936 7.48087 10.75 7.84551 10.75 8.24997V10.75H2.75C2.19771 10.75 1.75 11.1977 1.75 11.75V12.75C1.75 13.3023 2.19772 13.75 2.75 13.75H10.75V16.25Z" fill="#14213D"/>
</svg>
