<svg width="24" height="24" viewBox="0 0 24 24" fill="none" xmlns="http://www.w3.org/2000/svg">
<path d="M8 7.5C5.51472 7.5 3.5 9.51472 3.5 12C3.5 14.4853 5.51472 16.5 8 16.5H9.5C10.0523 16.5 10.5 16.9477 10.5 17.5V18.5C10.5 19.0523 10.0523 19.5 9.5 19.5H8C3.85786 19.5 0.5 16.1421 0.5 12C0.5 7.85786 3.85786 4.5 8 4.5H9.5C10.0523 4.5 10.5 4.94772 10.5 5.5V6.5C10.5 7.05228 10.0523 7.5 9.5 7.5H8Z" fill="#14213D"/>
<path d="M6.5 11.5C6.5 10.9477 6.94771 10.5 7.5 10.5H16.5C17.0523 10.5 17.5 10.9477 17.5 11.5V12.5C17.5 13.0523 17.0523 13.5 16.5 13.5H7.5C6.94772 13.5 6.5 13.0523 6.5 12.5V11.5Z" fill="#14213D"/>
<path d="M20.5 12C20.5 9.51472 18.4853 7.5 16 7.5H14.5C13.9477 7.5 13.5 7.05228 13.5 6.5V5.5C13.5 4.94772 13.9477 4.5 14.5 4.5H16C20.1421 4.5 23.5 7.85786 23.5 12C23.5 16.1421 20.1421 19.5 16 19.5H14.5C13.9477 19.5 13.5 19.0523 13.5 18.5V17.5C13.5 16.9477 13.9477 16.5 14.5 16.5H16C18.4853 16.5 20.5 14.4853 20.5 12Z" fill="#14213D"/>
</svg>
