<svg width="123" height="37" viewBox="0 0 123 37" fill="none" xmlns="http://www.w3.org/2000/svg">
<g filter="url(#filter0_d_625_15035)">
<path d="M20.1286 25.6C20.3286 25.6 20.5286 25.8 20.4886 26L19.9286 31.72C19.8886 31.92 19.7686 32.04 19.5686 32.04H4.36859C4.16859 32.04 4.00859 31.88 4.00859 31.64V4.44C4.00859 4.28 4.12859 4.12 4.32859 4.12H19.5686C19.7686 4.12 19.8886 4.24 19.9286 4.44L20.4886 10.12C20.4886 10.36 20.3286 10.52 20.1286 10.52H11.4486C11.2486 10.52 11.0886 10.68 11.0886 10.88V14.28C11.0886 14.48 11.2486 14.64 11.4486 14.64H17.7686C17.9686 14.64 18.1286 14.8 18.1286 15V20.68C18.1286 20.88 17.9686 21.04 17.7686 21.04H11.4486C11.2486 21.04 11.0886 21.2 11.0886 21.4V25.24C11.0886 25.44 11.2486 25.6 11.4486 25.6H20.1286ZM42.277 10.6C42.517 10.6 42.677 10.84 42.597 11.08L35.277 31.52C35.237 31.68 35.117 31.76 34.957 31.76H28.797C28.637 31.76 28.517 31.68 28.477 31.52L21.157 11.08C21.077 10.84 21.237 10.6 21.477 10.6H27.357C27.517 10.6 27.637 10.72 27.677 10.84L31.877 22.6L36.077 10.84C36.117 10.72 36.237 10.6 36.397 10.6H42.277ZM63.3905 18.24C63.7105 19.24 63.8705 20.28 63.8705 21.36C63.8705 21.96 63.7905 22.68 63.6705 23.32C63.6705 23.48 63.5105 23.6 63.3505 23.6H48.5505C48.2705 23.6 48.1105 23.88 48.2305 24.12C49.1505 25.64 50.7905 26.6 52.5905 26.6C54.1105 26.6 55.5505 25.96 56.5505 24.64C56.6305 24.56 56.7505 24.48 56.9105 24.52L62.5505 25.52C62.7905 25.56 62.9105 25.8 62.7905 26C62.6705 26.28 62.5105 26.6 62.4305 26.76L62.3505 26.92C62.2305 27.08 62.1505 27.2 62.0705 27.4C61.9105 27.6 61.7905 27.76 61.6705 27.92L61.5905 28C61.5505 28.08 61.5105 28.12 61.4705 28.16L61.4305 28.24C61.3505 28.36 61.2705 28.44 61.1905 28.52L61.1105 28.6C60.9905 28.76 60.8705 28.88 60.7505 29L60.6705 29.08C60.5505 29.2 60.4705 29.28 60.3905 29.36L60.3505 29.4C60.2705 29.48 60.1505 29.56 60.0705 29.64L59.9505 29.76L59.8305 29.64L59.9105 29.76C59.7505 29.92 59.6305 30.04 59.4705 30.12L59.3505 30.24C59.1505 30.36 58.9905 30.48 58.7905 30.6L58.7505 30.64C58.5505 30.76 58.3505 30.88 58.1105 31L58.0705 31.04C58.0305 31.08 57.9505 31.12 57.9105 31.12L57.8705 31.16C57.7905 31.2 57.6705 31.24 57.5905 31.28L57.5505 31.32C57.3505 31.4 57.1505 31.48 56.9505 31.56V31.6C56.7905 31.64 56.7105 31.68 56.5905 31.72L56.4305 31.76C56.3105 31.8 56.1505 31.88 56.0305 31.92H55.9905C55.8305 31.96 55.6705 32 55.5105 32.04L55.3905 32.08C55.0705 32.16 54.7505 32.24 54.4305 32.28L54.3105 32.32C53.9505 32.36 53.6305 32.4 53.2705 32.4H53.1505C52.9505 32.44 52.7905 32.44 52.6305 32.44C52.4705 32.44 52.3105 32.44 52.1105 32.4C52.0705 32.4 52.0305 32.4 51.9905 32.4H51.9505C51.8305 32.4 51.7105 32.4 51.5905 32.36H51.5505C51.5105 32.36 51.4705 32.36 51.4305 32.36C51.2305 32.36 51.0705 32.32 50.9505 32.28H50.9105H50.8305C50.7105 32.28 50.5505 32.24 50.4305 32.2L50.2705 32.16C50.1505 32.16 50.0305 32.12 49.9105 32.08H49.8705C49.8305 32.08 49.8305 32.08 49.7905 32.08C49.5905 32 49.4305 31.96 49.3105 31.92C49.1505 31.88 48.9905 31.84 48.8305 31.76C48.7905 31.76 48.7505 31.76 48.7105 31.72C48.5905 31.68 48.4705 31.64 48.3505 31.6L48.3105 31.56C48.2705 31.56 48.2705 31.56 48.2305 31.52C48.0705 31.48 47.9105 31.4 47.7905 31.32H47.7505C47.6305 31.28 47.4705 31.2 47.3505 31.12C47.3105 31.08 47.2705 31.08 47.2305 31.04H47.1905C47.1105 31 46.9905 30.92 46.9105 30.88L46.7505 30.8C46.6305 30.72 46.5105 30.64 46.3505 30.52C45.0305 29.64 43.8705 28.44 43.0305 27.08C42.9505 26.96 42.9105 26.88 42.8305 26.76L42.7905 26.68C42.7505 26.6 42.6705 26.48 42.6305 26.36L42.5905 26.28C42.5505 26.24 42.5505 26.24 42.5505 26.2C42.3105 25.76 42.1505 25.28 41.9905 24.8C41.8705 24.56 41.8305 24.32 41.7505 24.12C41.7105 23.96 41.6705 23.76 41.6305 23.6C41.5105 23.04 41.4705 22.48 41.4305 21.92C41.4305 21.72 41.4305 21.56 41.4305 21.36C41.4305 21.16 41.4305 20.96 41.4305 20.8C41.4705 19.8 41.6705 18.84 41.9905 17.88C42.0705 17.56 42.1905 17.32 42.3105 17.04C42.3505 16.88 42.4305 16.76 42.5105 16.6C42.5105 16.56 42.5105 16.52 42.5505 16.48L42.5905 16.4C42.5905 16.4 42.6305 16.36 42.6305 16.32C42.6705 16.28 42.6705 16.24 42.7105 16.2L42.7905 16.04C42.8705 15.88 42.9505 15.76 43.0305 15.6C43.8705 14.24 45.0305 13.08 46.3505 12.16C46.5105 12.08 46.6305 12 46.7505 11.92L46.9105 11.84C46.9905 11.76 47.1105 11.72 47.1905 11.68L47.2305 11.64C47.2705 11.64 47.3105 11.6 47.3505 11.6C47.4705 11.52 47.6305 11.44 47.7505 11.36C47.9105 11.32 48.0705 11.24 48.2305 11.16C48.2705 11.16 48.2705 11.16 48.3105 11.12H48.3505C48.4705 11.08 48.5905 11.04 48.7105 11V10.96C48.7505 10.96 48.7905 10.96 48.8305 10.92C48.9905 10.88 49.1505 10.84 49.3105 10.76C49.4705 10.72 49.6305 10.68 49.7905 10.64C49.8305 10.64 49.8305 10.64 49.8705 10.6H49.9105C50.0305 10.56 50.1505 10.56 50.2705 10.52H50.3505C50.5105 10.48 50.7505 10.44 50.9105 10.4C50.9505 10.4 50.9505 10.4 50.9505 10.4C51.0705 10.4 51.2305 10.36 51.4305 10.36C51.4705 10.36 51.5105 10.32 51.5505 10.32H51.5905C51.7105 10.32 51.8305 10.32 51.9505 10.32H51.9905C52.0305 10.28 52.0705 10.28 52.1105 10.28C52.3105 10.28 52.4705 10.28 52.6305 10.28C52.7905 10.28 52.9505 10.28 53.1505 10.28L53.2705 10.32C53.6305 10.32 53.9505 10.36 54.2705 10.4L54.4305 10.44C54.7505 10.48 55.0705 10.52 55.3905 10.6L55.5105 10.64C55.6705 10.68 55.8305 10.76 55.9905 10.8H56.0305C56.1505 10.84 56.3105 10.88 56.4305 10.92C56.4705 10.96 56.5105 10.96 56.5505 11C56.7105 11.04 56.7905 11.08 56.9105 11.12H56.9905C57.1505 11.2 57.3505 11.32 57.5505 11.4H57.5905C57.6705 11.48 57.7905 11.52 57.8705 11.56L57.8305 11.72L57.9105 11.56C57.9505 11.6 58.0305 11.64 58.0705 11.68C58.2705 11.76 58.5505 11.96 58.7505 12.08C58.9505 12.2 59.1505 12.32 59.3105 12.48H59.3505C59.3905 12.52 59.4305 12.56 59.4705 12.56C59.6305 12.68 59.7505 12.8 59.9105 12.92L60.0305 13C60.1505 13.12 60.2305 13.2 60.3505 13.32L60.3905 13.36C60.4705 13.44 60.5505 13.52 60.6705 13.6L60.7105 13.68C60.8705 13.84 60.9905 13.96 61.1105 14.08L60.9905 14.24L61.1105 14.12L61.1905 14.2C61.2705 14.28 61.3505 14.36 61.4305 14.44L61.4705 14.52C61.5505 14.64 61.6705 14.76 61.7505 14.88C61.8305 14.96 61.8705 15.08 61.9505 15.16L62.0705 15.32C62.1105 15.44 62.1505 15.52 62.2305 15.6L62.4305 15.92C62.8305 16.68 63.1505 17.44 63.3905 18.24ZM56.9105 18.96C57.1105 18.96 57.2705 18.76 57.2305 18.56C56.9905 17 55.1905 15.76 52.9105 15.76C50.7905 15.76 48.8305 17 48.5505 18.56C48.5105 18.76 48.6705 18.96 48.8705 18.96H56.9105ZM82.0577 12.48C84.2177 14.64 84.5777 16.4 84.5777 19.52V31.44C84.5777 31.6 84.4177 31.76 84.2177 31.76H77.9377C77.7377 31.76 77.5777 31.6 77.5777 31.44V19.84C77.5777 19.08 77.5377 18.16 77.2177 17.44C77.0577 17.12 76.8577 16.88 76.6177 16.68C76.2177 16.4 75.6977 16.24 75.0577 16.24C73.8577 16.24 72.8977 16.64 72.6177 17.32C72.2577 18.04 72.2577 19.04 72.2577 19.84V31.44C72.2577 31.6 72.0977 31.76 71.9377 31.76H65.6177C65.4177 31.76 65.2977 31.6 65.2977 31.44V10.96C65.2977 10.76 65.4177 10.6 65.6177 10.6H71.5377C71.6977 10.6 71.8577 10.76 71.8577 10.96V11.52C71.8577 11.68 72.0177 11.76 72.1377 11.68C76.8977 8.4 81.5377 12.04 81.5777 12.08C81.7377 12.2 81.8977 12.32 82.0577 12.48ZM98.0502 26.28C98.2502 26.28 98.4102 26.44 98.3702 26.64L97.6102 31.64C97.6102 31.8 97.4902 31.92 97.3302 31.96C96.5702 32 94.6502 32.08 94.0502 32.08C94.0102 32.08 93.9702 32.08 93.9302 32.08C90.3702 31.92 88.4502 30.08 88.4502 26.76V16.6C88.4502 16.44 88.2902 16.28 88.1302 16.28H85.9302C85.7302 16.28 85.6102 16.12 85.6102 15.92V10.92C85.6102 10.76 85.7302 10.6 85.9302 10.6H88.1302C88.2902 10.6 88.4502 10.44 88.4502 10.24V4.44C88.4502 4.28 88.6102 4.12 88.8102 4.12H94.6902C94.8902 4.12 95.0502 4.28 95.0502 4.44V10.24C95.0502 10.44 95.2102 10.6 95.3702 10.6H97.5702C97.7702 10.6 97.9302 10.76 97.9302 10.92V15.92C97.9302 16.12 97.7702 16.28 97.5702 16.28H95.3702C95.2102 16.28 95.0502 16.44 95.0502 16.6C95.0502 18.36 95.0502 23.56 95.0502 23.6V23.76C95.0102 24.4 94.9702 25.28 95.4902 25.8C95.8102 26.12 96.2902 26.28 96.8902 26.28H98.0502ZM118.958 31.4C118.998 31.6 118.838 31.76 118.638 31.76H99.7583C99.5183 31.76 99.3583 31.48 99.4783 31.24L107.718 16.96C107.838 16.72 107.678 16.44 107.438 16.44H100.398C100.238 16.44 100.078 16.32 100.038 16.16L99.4383 11C99.3983 10.8 99.5583 10.6 99.7583 10.6H118.278C118.518 10.6 118.678 10.88 118.558 11.12L110.318 25.44C110.198 25.64 110.358 25.92 110.598 25.92H117.998C118.158 25.92 118.318 26.08 118.318 26.24L118.958 31.4Z" fill="url(#paint0_linear_625_15035)" shape-rendering="crispEdges"/>
</g>
<defs>
<filter id="filter0_d_625_15035" x="0.00854492" y="0.119995" width="122.99" height="36.32" filterUnits="userSpaceOnUse" color-interpolation-filters="sRGB">
<feFlood flood-opacity="0" result="BackgroundImageFix"/>
<feColorMatrix in="SourceAlpha" type="matrix" values="0 0 0 0 0 0 0 0 0 0 0 0 0 0 0 0 0 0 127 0" result="hardAlpha"/>
<feOffset/>
<feGaussianBlur stdDeviation="2"/>
<feComposite in2="hardAlpha" operator="out"/>
<feColorMatrix type="matrix" values="0 0 0 0 0 0 0 0 0 0 0 0 0 0 0 0 0 0 0.25 0"/>
<feBlend mode="normal" in2="BackgroundImageFix" result="effect1_dropShadow_625_15035"/>
<feBlend mode="normal" in="SourceGraphic" in2="effect1_dropShadow_625_15035" result="shape"/>
</filter>
<linearGradient id="paint0_linear_625_15035" x1="151.605" y1="17.5" x2="-39.3314" y2="17.5" gradientUnits="userSpaceOnUse">
<stop offset="0.122272" stop-color="#F7FD04" stop-opacity="0.7"/>
<stop offset="0.306745" stop-color="#28DF99" stop-opacity="0.7"/>
<stop offset="0.4985" stop-color="#64B5F6"/>
<stop offset="0.6854" stop-color="#C77DFF"/>
<stop offset="0.871086" stop-color="#FF5C8A"/>
</linearGradient>
</defs>
</svg>
