<svg width="24" height="24" viewBox="0 0 24 24" fill="none" xmlns="http://www.w3.org/2000/svg">
<path d="M10.5 13C10.5 13.5523 10.9477 14 11.5 14H12.5C13.0523 14 13.5 13.5523 13.5 13V3C13.5 2.44772 13.0523 2 12.5 2H11.5C10.9477 2 10.5 2.44772 10.5 3V13Z" fill="#14213D"/>
<path d="M5.97584 7.81301C6.31036 7.37356 6.31677 6.74398 5.92623 6.35348L5.21909 5.6464C4.82855 5.2559 4.19112 5.25312 3.8398 5.67926C2.37973 7.4503 1.5 9.71165 1.5 12.1764C1.5 17.9058 6.22915 22.4999 12 22.4999C17.7709 22.4999 22.5 17.9058 22.5 12.1764C22.5 9.71165 21.6203 7.4503 20.1602 5.67926C19.8089 5.25312 19.1715 5.2559 18.7809 5.6464L18.0738 6.35348C17.6832 6.74398 17.6896 7.37356 18.0242 7.81301C18.9539 9.03438 19.5 10.5437 19.5 12.1764C19.5 16.1932 16.1703 19.4999 12 19.4999C7.82973 19.4999 4.5 16.1932 4.5 12.1764C4.5 10.5437 5.04606 9.03438 5.97584 7.81301Z" fill="#14213D"/>
</svg>
