<svg width="24" height="24" viewBox="0 0 24 24" fill="none" xmlns="http://www.w3.org/2000/svg">
<path d="M9.5 14.5C8.94772 14.5 8.5 14.0523 8.5 13.5V11.5H6.5C5.94772 11.5 5.5 11.0523 5.5 10.5V9.5C5.5 8.94772 5.94772 8.5 6.5 8.5H8.5V6.5C8.5 5.94772 8.94772 5.5 9.5 5.5H10.5C11.0523 5.5 11.5 5.94772 11.5 6.5V8.5H13.5C14.0523 8.5 14.5 8.94772 14.5 9.5V10.5C14.5 11.0523 14.0523 11.5 13.5 11.5H11.5V13.5C11.5 14.0523 11.0523 14.5 10.5 14.5H9.5Z" fill="#14213D"/>
<path fill-rule="evenodd" clip-rule="evenodd" d="M0.5 10C0.5 4.75329 4.75329 0.5 10 0.5C15.2467 0.5 19.5 4.75329 19.5 10C19.5 12.082 18.8302 14.0076 17.6944 15.5731L22.4142 20.2929C22.8047 20.6834 22.8047 21.3166 22.4142 21.7071L21.7071 22.4142C21.3166 22.8047 20.6834 22.8047 20.2929 22.4142L15.5731 17.6944C14.0076 18.8302 12.082 19.5 10 19.5C4.75329 19.5 0.5 15.2467 0.5 10ZM10 3.5C6.41015 3.5 3.5 6.41015 3.5 10C3.5 13.5899 6.41015 16.5 10 16.5C13.5899 16.5 16.5 13.5899 16.5 10C16.5 6.41015 13.5899 3.5 10 3.5Z" fill="#14213D"/>
</svg>
