<svg width="24" height="24" viewBox="0 0 24 24" fill="none" xmlns="http://www.w3.org/2000/svg">
<path d="M23.228 8.01785C23.6186 7.62741 23.6187 6.99424 23.2283 6.60363L22.5213 5.89638C22.1309 5.50577 21.4977 5.50563 21.1071 5.89607L10.0862 16.9122C9.69563 17.3027 9.6955 17.9359 10.0859 18.3265L10.7929 19.0337C11.1833 19.4243 11.8165 19.4245 12.2071 19.034L23.228 8.01785Z" fill="#14213D"/>
<path d="M17.2285 8.01777C17.619 7.62724 17.619 6.99408 17.2285 6.60356L16.5214 5.89645C16.1309 5.50592 15.4977 5.50592 15.1072 5.89645L5.54542 15.4582L2.76773 12.6805C2.37721 12.29 1.74404 12.29 1.35352 12.6805L0.646409 13.3876C0.255884 13.7782 0.255885 14.4113 0.646409 14.8019L4.83831 18.9938C5.22883 19.3843 5.862 19.3843 6.25252 18.9938L17.2285 8.01777Z" fill="#14213D"/>
</svg>
