<svg width="24" height="24" viewBox="0 0 24 24" fill="none" xmlns="http://www.w3.org/2000/svg">
<path fill-rule="evenodd" clip-rule="evenodd" d="M14.5858 5.29289C14.1953 5.68342 14.1953 6.31658 14.5858 6.70711L19.8787 12L14.5858 17.2929C14.1953 17.6834 14.1953 18.3166 14.5858 18.7071L15.2929 19.4142C15.6834 19.8047 16.3166 19.8047 16.7071 19.4142L23.0607 13.0607C23.6464 12.4749 23.6464 11.5251 23.0607 10.9393L16.7071 4.58579C16.3166 4.19526 15.6834 4.19526 15.2929 4.58579L14.5858 5.29289Z" fill="#14213D"/>
<path fill-rule="evenodd" clip-rule="evenodd" d="M9.41421 5.29289C9.80474 5.68342 9.80474 6.31658 9.41421 6.70711L4.12132 12L9.41421 17.2929C9.80474 17.6834 9.80474 18.3166 9.41421 18.7071L8.70711 19.4142C8.31658 19.8047 7.68342 19.8047 7.29289 19.4142L0.93934 13.0607C0.353553 12.4749 0.353553 11.5251 0.93934 10.9393L7.29289 4.58579C7.68342 4.19526 8.31658 4.19526 8.70711 4.58579L9.41421 5.29289Z" fill="#14213D"/>
</svg>
