<svg width="24" height="24" viewBox="0 0 24 24" fill="none" xmlns="http://www.w3.org/2000/svg">
<path d="M19 4C19 3.44772 19.4477 3 20 3H21C21.5523 3 22 3.44772 22 4V20C22 20.5523 21.5523 21 21 21H20C19.4477 21 19 20.5523 19 20V4Z" fill="#14213D"/>
<path d="M11 16C11 16.4044 11.2436 16.7691 11.6173 16.9239C11.991 17.0786 12.4211 16.9931 12.7071 16.7071L16.7071 12.7071C17.0976 12.3166 17.0976 11.6834 16.7071 11.2929L12.7071 7.29286C12.4211 7.00687 11.991 6.92131 11.6173 7.07609C11.2436 7.23087 11 7.59551 11 7.99997V10.5H3C2.44771 10.5 2 10.9477 2 11.5V12.5C2 13.0523 2.44772 13.5 3 13.5H11V16Z" fill="#14213D"/>
</svg>
