<svg width="24" height="24" viewBox="0 0 24 24" fill="none" xmlns="http://www.w3.org/2000/svg">
<path d="M8 6.5C9.38071 6.5 10.5 5.38071 10.5 4C10.5 2.61929 9.38071 1.5 8 1.5C6.61929 1.5 5.5 2.61929 5.5 4C5.5 5.38071 6.61929 6.5 8 6.5Z" fill="#14213D"/>
<path d="M15.5 6.5C16.8807 6.5 18 5.38071 18 4C18 2.61929 16.8807 1.5 15.5 1.5C14.1193 1.5 13 2.61929 13 4C13 5.38071 14.1193 6.5 15.5 6.5Z" fill="#14213D"/>
<path d="M10.5 12C10.5 13.3807 9.38071 14.5 8 14.5C6.61929 14.5 5.5 13.3807 5.5 12C5.5 10.6193 6.61929 9.5 8 9.5C9.38071 9.5 10.5 10.6193 10.5 12Z" fill="#14213D"/>
<path d="M15.5 14.5C16.8807 14.5 18 13.3807 18 12C18 10.6193 16.8807 9.5 15.5 9.5C14.1193 9.5 13 10.6193 13 12C13 13.3807 14.1193 14.5 15.5 14.5Z" fill="#14213D"/>
<path d="M10.5 20C10.5 21.3807 9.38071 22.5 8 22.5C6.61929 22.5 5.5 21.3807 5.5 20C5.5 18.6193 6.61929 17.5 8 17.5C9.38071 17.5 10.5 18.6193 10.5 20Z" fill="#14213D"/>
<path d="M15.5 22.5C16.8807 22.5 18 21.3807 18 20C18 18.6193 16.8807 17.5 15.5 17.5C14.1193 17.5 13 18.6193 13 20C13 21.3807 14.1193 22.5 15.5 22.5Z" fill="#14213D"/>
</svg>
