<svg width="24" height="24" viewBox="0 0 24 24" fill="none" xmlns="http://www.w3.org/2000/svg">
<path d="M4.70718 2.58574C4.31666 2.19522 3.68349 2.19522 3.29297 2.58574L2.58586 3.29285C2.19534 3.68337 2.19534 4.31654 2.58586 4.70706L9.87877 12L2.5859 19.2928C2.19537 19.6834 2.19537 20.3165 2.5859 20.7071L3.293 21.4142C3.68353 21.8047 4.31669 21.8047 4.70722 21.4142L12.0001 14.1213L19.293 21.4142C19.6835 21.8047 20.3167 21.8047 20.7072 21.4142L21.4143 20.7071C21.8048 20.3165 21.8048 19.6834 21.4143 19.2928L14.1214 12L21.4143 4.70706C21.8048 4.31654 21.8048 3.68337 21.4143 3.29285L20.7072 2.58574C20.3167 2.19522 19.6835 2.19522 19.293 2.58574L12.0001 9.87865L4.70718 2.58574Z" fill="#14213D"/>
</svg>
