<svg width="24" height="24" viewBox="0 0 24 24" fill="none" xmlns="http://www.w3.org/2000/svg">
<path fill-rule="evenodd" clip-rule="evenodd" d="M18.25 8H19.5C20.3284 8 21 8.67157 21 9.5V18C21 20.7614 18.7614 23 16 23H8C5.23858 23 3 20.7614 3 18V9.5C3 8.67157 3.67157 8 4.5 8H5.75V6.77273C5.75 5.15614 6.42331 3.61822 7.60137 2.49371C8.77746 1.37107 10.3607 0.75 12 0.75C13.6393 0.75 15.2225 1.37107 16.3986 2.49371C17.5767 3.61822 18.25 5.15614 18.25 6.77273V8ZM12 3.25C10.9872 3.25 10.0268 3.6346 9.32756 4.30209C8.63026 4.9677 8.25 5.8577 8.25 6.77273V8H15.75V6.77273C15.75 5.8577 15.3697 4.9677 14.6724 4.30209C13.9732 3.6346 13.0128 3.25 12 3.25Z" fill="#14213D"/>
</svg>
