<svg width="24" height="24" viewBox="0 0 24 24" fill="none" xmlns="http://www.w3.org/2000/svg">
<path fill-rule="evenodd" clip-rule="evenodd" d="M7 2H5C4.20435 2 3.44129 2.31607 2.87868 2.87868C2.31607 3.44129 2 4.20435 2 5V19C2 19.7957 2.31607 20.5587 2.87868 21.1213C3.44129 21.6839 4.20435 22 5 22H19C19.7957 22 20.5587 21.6839 21.1213 21.1213C21.6839 20.5587 22 19.7957 22 19V8C22 7.73478 21.8946 7.48043 21.7071 7.29289L16.7071 2.29289C16.5196 2.10536 16.2652 2 16 2H9V7H16.5C16.7761 7 17 7.22386 17 7.5V8.5C17 8.77614 16.7761 9 16.5 9H8C7.44772 9 7 8.55229 7 8V2ZM6 13C5.44772 13 5 13.3838 5 13.8571V18.1429C5 18.6162 5.44772 19 6 19H18C18.5523 19 19 18.6162 19 18.1429V13.8571C19 13.3838 18.5523 13 18 13H6Z" fill="#14213D"/>
</svg>
