<svg width="24" height="24" viewBox="0 0 24 24" fill="none" xmlns="http://www.w3.org/2000/svg">
<path d="M22 16V3.36611C22 2.12848 20.8873 1.18793 19.6669 1.39403L8.66694 3.25181C7.70452 3.41435 7 4.24784 7 5.22388V14.126C6.68038 14.0438 6.3453 14 6 14C3.79086 14 2 15.7909 2 18C2 20.2091 3.79086 22 6 22C8.20914 22 10 20.2091 10 18V6.06916L19 4.54916V12.126C18.6804 12.0438 18.3453 12 18 12C15.7909 12 14 13.7909 14 16C14 18.2091 15.7909 20 18 20C20.2091 20 22 18.2091 22 16Z" fill="#14213D"/>
</svg>
