<svg width="24" height="24" viewBox="0 0 24 24" fill="none" xmlns="http://www.w3.org/2000/svg">
<path d="M1.5 6.5C1.5 3.46243 3.96243 1 7 1C10.0376 1 12.5 3.46243 12.5 6.5C12.5 9.53757 10.0376 12 7 12C3.96243 12 1.5 9.53757 1.5 6.5Z" fill="#14213D"/>
<path d="M14.4999 6.5C14.4999 8.00034 14.0593 9.39779 13.3005 10.57C14.2774 11.4585 15.5754 12 16.9999 12C20.0375 12 22.4999 9.53757 22.4999 6.5C22.4999 3.46243 20.0375 1 16.9999 1C15.5754 1 14.2774 1.54153 13.3005 2.42996C14.0593 3.60221 14.4999 4.99966 14.4999 6.5Z" fill="#14213D"/>
<path d="M0 18C0 15.7909 1.79086 14 4 14H10C12.2091 14 14 15.7909 14 18V22C14 22.5523 13.5523 23 13 23H1C0.447716 23 0 22.5523 0 22V18Z" fill="#14213D"/>
<path d="M16 18V23H23C23.5522 23 24 22.5523 24 22V18C24 15.7909 22.2091 14 20 14H14.4722C15.4222 15.0615 16 16.4633 16 18Z" fill="#14213D"/>
</svg>
