<svg width="24" height="24" viewBox="0 0 24 24" fill="none" xmlns="http://www.w3.org/2000/svg">
<path d="M20 5C20.5523 5 21 4.55228 21 4V3C21 2.44772 20.5523 2 20 2H4C3.44772 2 3 2.44772 3 3V4C3 4.55228 3.44772 5 4 5H20Z" fill="#14213D"/>
<path d="M8.00003 13C7.59557 13 7.23093 12.7564 7.07615 12.3827C6.92137 12.009 7.00692 11.5789 7.29292 11.2929L11.2929 7.29289C11.6834 6.90237 12.3166 6.90237 12.7071 7.29289L16.7071 11.2929C16.9931 11.5789 17.0787 12.009 16.9239 12.3827C16.7691 12.7564 16.4045 13 16 13H13.5V21C13.5 21.5523 13.0523 22 12.5 22H11.5C10.9477 22 10.5 21.5523 10.5 21V13H8.00003Z" fill="#14213D"/>
</svg>
