<svg width="24" height="24" viewBox="0 0 24 24" fill="none" xmlns="http://www.w3.org/2000/svg">
<g clip-path="url(#clip0_240_9693)">
<path fill-rule="evenodd" clip-rule="evenodd" d="M23.3535 1.35352C23.744 1.74404 23.744 2.37721 23.3535 2.76773L2.76773 23.3535C2.3772 23.744 1.74404 23.744 1.35351 23.3535L0.646408 22.6464C0.255884 22.2559 0.255885 21.6227 0.646409 21.2322L3.87194 18.0067C2.73597 16.8882 1.87895 15.6816 1.2732 14.6799C0.867646 14.0092 0.5691 13.421 0.370612 12.9971C0.271255 12.785 0.196646 12.6133 0.145961 12.4922C0.12061 12.4317 0.101217 12.3838 0.0876805 12.3497L0.0717465 12.3091L0.067044 12.2969L0.0655043 12.2928L0.0649367 12.2913C0.0649367 12.2913 0.0645038 12.2902 1.00001 11.9371L0.074198 11.5593L0.0746014 11.5583L0.0756485 11.5557L0.0787059 11.5483L0.0886819 11.5245C0.0970512 11.5046 0.108867 11.4769 0.124153 11.4419C0.154718 11.372 0.199199 11.2727 0.257786 11.1484C0.374887 10.8998 0.548788 10.55 0.781098 10.1325C1.24449 9.29981 1.94679 8.18638 2.90303 7.0685C4.80651 4.84327 7.80941 2.5 12.0001 2.5C14.2447 2.5 16.1544 3.17475 17.7344 4.14417L21.2322 0.646409C21.6227 0.255885 22.2559 0.255885 22.6464 0.646409L23.3535 1.35352ZM8.70251 13.1761L13.1761 8.70251C12.8085 8.57139 12.4126 8.5 12 8.5C10.067 8.5 8.5 10.067 8.5 12C8.5 12.4126 8.57139 12.8085 8.70251 13.1761Z" fill="#14213D"/>
<path d="M0.074198 11.5593C0.074198 11.5593 0.073874 11.5601 1.00001 11.9371L0.0645038 12.2902L-0.0739746 11.9233L0.074198 11.5593Z" fill="#14213D"/>
<path d="M21.3157 7.27014L22.0032 8.22161C22.6475 9.11314 23.1238 9.93795 23.4402 10.542C23.5986 10.8445 23.7177 11.0931 23.7983 11.2688C23.8386 11.3567 23.8694 11.4265 23.8906 11.4758C23.9013 11.5004 23.9095 11.52 23.9155 11.5341L23.9226 11.5513L23.9249 11.5567L23.9261 11.5598L23 11.9371L23.9353 12.291L23.9339 12.2947L23.931 12.3023L23.9215 12.3267C23.9136 12.3469 23.9024 12.3751 23.8878 12.4108C23.8588 12.482 23.8165 12.583 23.7605 12.7095C23.6487 12.9623 23.4821 13.318 23.2577 13.7424C22.8103 14.5889 22.1268 15.721 21.1822 16.8577C19.2985 19.1244 16.2931 21.5 12 21.5C11.1273 21.5 10.3031 21.4013 9.52753 21.2228L7.76782 20.818L21.3157 7.27014Z" fill="#14213D"/>
<path d="M23.9353 12.291C23.9353 12.291 23.9356 12.2902 23 11.9371C23.9262 11.5601 23.9261 11.5598 23.9261 11.5598L24.0741 11.9233L23.9353 12.291Z" fill="#14213D"/>
</g>
<defs>
<clipPath id="clip0_240_9693">
<rect width="24" height="24" fill="white"/>
</clipPath>
</defs>
</svg>
